<?xml version="1.0" encoding="utf-8"?>
<svg xmlns="http://www.w3.org/2000/svg" xmlns:xlink="http://www.w3.org/1999/xlink" width="600" height="400" viewBox="0 0 2400 1600">
<defs>
  <clipPath id="clip800">
    <rect x="0" y="0" width="2400" height="1600"/>
  </clipPath>
</defs>
<path clip-path="url(#clip800)" d="M0 1600 L2400 1600 L2400 0 L0 0  Z" fill="#ffffff" fill-rule="evenodd" fill-opacity="1"/>
<defs>
  <clipPath id="clip801">
    <rect x="480" y="0" width="1681" height="1600"/>
  </clipPath>
</defs>
<path clip-path="url(#clip800)" d="M186.274 1486.45 L1152.76 1486.45 L1152.76 47.2441 L186.274 47.2441  Z" fill="#ffffff" fill-rule="evenodd" fill-opacity="1"/>
<defs>
  <clipPath id="clip802">
    <rect x="186" y="47" width="967" height="1440"/>
  </clipPath>
</defs>
<polyline clip-path="url(#clip802)" style="stroke:#000000; stroke-linecap:round; stroke-linejoin:round; stroke-width:2; stroke-opacity:0.1; fill:none" points="186.274,1486.45 186.274,47.2441 "/>
<polyline clip-path="url(#clip802)" style="stroke:#000000; stroke-linecap:round; stroke-linejoin:round; stroke-width:2; stroke-opacity:0.1; fill:none" points="347.354,1486.45 347.354,47.2441 "/>
<polyline clip-path="url(#clip802)" style="stroke:#000000; stroke-linecap:round; stroke-linejoin:round; stroke-width:2; stroke-opacity:0.1; fill:none" points="508.435,1486.45 508.435,47.2441 "/>
<polyline clip-path="url(#clip802)" style="stroke:#000000; stroke-linecap:round; stroke-linejoin:round; stroke-width:2; stroke-opacity:0.1; fill:none" points="669.515,1486.45 669.515,47.2441 "/>
<polyline clip-path="url(#clip802)" style="stroke:#000000; stroke-linecap:round; stroke-linejoin:round; stroke-width:2; stroke-opacity:0.1; fill:none" points="830.595,1486.45 830.595,47.2441 "/>
<polyline clip-path="url(#clip802)" style="stroke:#000000; stroke-linecap:round; stroke-linejoin:round; stroke-width:2; stroke-opacity:0.1; fill:none" points="991.676,1486.45 991.676,47.2441 "/>
<polyline clip-path="url(#clip802)" style="stroke:#000000; stroke-linecap:round; stroke-linejoin:round; stroke-width:2; stroke-opacity:0.1; fill:none" points="1152.76,1486.45 1152.76,47.2441 "/>
<polyline clip-path="url(#clip800)" style="stroke:#000000; stroke-linecap:round; stroke-linejoin:round; stroke-width:4; stroke-opacity:1; fill:none" points="186.274,1486.45 1152.76,1486.45 "/>
<polyline clip-path="url(#clip800)" style="stroke:#000000; stroke-linecap:round; stroke-linejoin:round; stroke-width:4; stroke-opacity:1; fill:none" points="186.274,1486.45 186.274,1467.55 "/>
<polyline clip-path="url(#clip800)" style="stroke:#000000; stroke-linecap:round; stroke-linejoin:round; stroke-width:4; stroke-opacity:1; fill:none" points="347.354,1486.45 347.354,1467.55 "/>
<polyline clip-path="url(#clip800)" style="stroke:#000000; stroke-linecap:round; stroke-linejoin:round; stroke-width:4; stroke-opacity:1; fill:none" points="508.435,1486.45 508.435,1467.55 "/>
<polyline clip-path="url(#clip800)" style="stroke:#000000; stroke-linecap:round; stroke-linejoin:round; stroke-width:4; stroke-opacity:1; fill:none" points="669.515,1486.45 669.515,1467.55 "/>
<polyline clip-path="url(#clip800)" style="stroke:#000000; stroke-linecap:round; stroke-linejoin:round; stroke-width:4; stroke-opacity:1; fill:none" points="830.595,1486.45 830.595,1467.55 "/>
<polyline clip-path="url(#clip800)" style="stroke:#000000; stroke-linecap:round; stroke-linejoin:round; stroke-width:4; stroke-opacity:1; fill:none" points="991.676,1486.45 991.676,1467.55 "/>
<polyline clip-path="url(#clip800)" style="stroke:#000000; stroke-linecap:round; stroke-linejoin:round; stroke-width:4; stroke-opacity:1; fill:none" points="1152.76,1486.45 1152.76,1467.55 "/>
<path clip-path="url(#clip800)" d="M186.274 1517.37 Q182.663 1517.37 180.834 1520.93 Q179.029 1524.47 179.029 1531.6 Q179.029 1538.71 180.834 1542.27 Q182.663 1545.82 186.274 1545.82 Q189.908 1545.82 191.714 1542.27 Q193.542 1538.71 193.542 1531.6 Q193.542 1524.47 191.714 1520.93 Q189.908 1517.37 186.274 1517.37 M186.274 1513.66 Q192.084 1513.66 195.14 1518.27 Q198.218 1522.85 198.218 1531.6 Q198.218 1540.33 195.14 1544.94 Q192.084 1549.52 186.274 1549.52 Q180.464 1549.52 177.385 1544.94 Q174.33 1540.33 174.33 1531.6 Q174.33 1522.85 177.385 1518.27 Q180.464 1513.66 186.274 1513.66 Z" fill="#000000" fill-rule="nonzero" fill-opacity="1" /><path clip-path="url(#clip800)" d="M337.736 1544.91 L345.375 1544.91 L345.375 1518.55 L337.065 1520.21 L337.065 1515.95 L345.329 1514.29 L350.005 1514.29 L350.005 1544.91 L357.644 1544.91 L357.644 1548.85 L337.736 1548.85 L337.736 1544.91 Z" fill="#000000" fill-rule="nonzero" fill-opacity="1" /><path clip-path="url(#clip800)" d="M503.087 1544.91 L519.407 1544.91 L519.407 1548.85 L497.462 1548.85 L497.462 1544.91 Q500.124 1542.16 504.708 1537.53 Q509.314 1532.88 510.495 1531.53 Q512.74 1529.01 513.62 1527.27 Q514.523 1525.51 514.523 1523.82 Q514.523 1521.07 512.578 1519.33 Q510.657 1517.6 507.555 1517.6 Q505.356 1517.6 502.902 1518.36 Q500.472 1519.13 497.694 1520.68 L497.694 1515.95 Q500.518 1514.82 502.972 1514.24 Q505.425 1513.66 507.462 1513.66 Q512.833 1513.66 516.027 1516.35 Q519.222 1519.03 519.222 1523.52 Q519.222 1525.65 518.411 1527.57 Q517.624 1529.47 515.518 1532.07 Q514.939 1532.74 511.837 1535.95 Q508.736 1539.15 503.087 1544.91 Z" fill="#000000" fill-rule="nonzero" fill-opacity="1" /><path clip-path="url(#clip800)" d="M673.763 1530.21 Q677.119 1530.93 678.994 1533.2 Q680.892 1535.47 680.892 1538.8 Q680.892 1543.92 677.374 1546.72 Q673.855 1549.52 667.374 1549.52 Q665.198 1549.52 662.883 1549.08 Q660.591 1548.66 658.138 1547.81 L658.138 1543.29 Q660.082 1544.43 662.397 1545.01 Q664.712 1545.58 667.235 1545.58 Q671.633 1545.58 673.925 1543.85 Q676.239 1542.11 676.239 1538.8 Q676.239 1535.75 674.087 1534.03 Q671.957 1532.3 668.138 1532.3 L664.11 1532.3 L664.11 1528.45 L668.323 1528.45 Q671.772 1528.45 673.601 1527.09 Q675.429 1525.7 675.429 1523.11 Q675.429 1520.45 673.531 1519.03 Q671.656 1517.6 668.138 1517.6 Q666.216 1517.6 664.017 1518.01 Q661.818 1518.43 659.179 1519.31 L659.179 1515.14 Q661.841 1514.4 664.156 1514.03 Q666.494 1513.66 668.554 1513.66 Q673.878 1513.66 676.98 1516.09 Q680.082 1518.5 680.082 1522.62 Q680.082 1525.49 678.439 1527.48 Q676.795 1529.45 673.763 1530.21 Z" fill="#000000" fill-rule="nonzero" fill-opacity="1" /><path clip-path="url(#clip800)" d="M833.605 1518.36 L821.799 1536.81 L833.605 1536.81 L833.605 1518.36 M832.378 1514.29 L838.257 1514.29 L838.257 1536.81 L843.188 1536.81 L843.188 1540.7 L838.257 1540.7 L838.257 1548.85 L833.605 1548.85 L833.605 1540.7 L818.003 1540.7 L818.003 1536.19 L832.378 1514.29 Z" fill="#000000" fill-rule="nonzero" fill-opacity="1" /><path clip-path="url(#clip800)" d="M981.953 1514.29 L1000.31 1514.29 L1000.31 1518.22 L986.236 1518.22 L986.236 1526.7 Q987.254 1526.35 988.273 1526.19 Q989.291 1526 990.31 1526 Q996.097 1526 999.476 1529.17 Q1002.86 1532.34 1002.86 1537.76 Q1002.86 1543.34 999.384 1546.44 Q995.912 1549.52 989.592 1549.52 Q987.416 1549.52 985.148 1549.15 Q982.902 1548.78 980.495 1548.04 L980.495 1543.34 Q982.578 1544.47 984.801 1545.03 Q987.023 1545.58 989.5 1545.58 Q993.504 1545.58 995.842 1543.48 Q998.18 1541.37 998.18 1537.76 Q998.18 1534.15 995.842 1532.04 Q993.504 1529.94 989.5 1529.94 Q987.625 1529.94 985.75 1530.35 Q983.898 1530.77 981.953 1531.65 L981.953 1514.29 Z" fill="#000000" fill-rule="nonzero" fill-opacity="1" /><path clip-path="url(#clip800)" d="M1153.16 1529.7 Q1150.01 1529.7 1148.16 1531.86 Q1146.33 1534.01 1146.33 1537.76 Q1146.33 1541.49 1148.16 1543.66 Q1150.01 1545.82 1153.16 1545.82 Q1156.31 1545.82 1158.14 1543.66 Q1159.99 1541.49 1159.99 1537.76 Q1159.99 1534.01 1158.14 1531.86 Q1156.31 1529.7 1153.16 1529.7 M1162.44 1515.05 L1162.44 1519.31 Q1160.68 1518.48 1158.88 1518.04 Q1157.1 1517.6 1155.34 1517.6 Q1150.71 1517.6 1148.25 1520.72 Q1145.82 1523.85 1145.48 1530.17 Q1146.84 1528.15 1148.9 1527.09 Q1150.96 1526 1153.44 1526 Q1158.65 1526 1161.66 1529.17 Q1164.69 1532.32 1164.69 1537.76 Q1164.69 1543.08 1161.54 1546.3 Q1158.39 1549.52 1153.16 1549.52 Q1147.17 1549.52 1143.99 1544.94 Q1140.82 1540.33 1140.82 1531.6 Q1140.82 1523.41 1144.71 1518.55 Q1148.6 1513.66 1155.15 1513.66 Q1156.91 1513.66 1158.69 1514.01 Q1160.5 1514.36 1162.44 1515.05 Z" fill="#000000" fill-rule="nonzero" fill-opacity="1" /><polyline clip-path="url(#clip802)" style="stroke:#000000; stroke-linecap:round; stroke-linejoin:round; stroke-width:2; stroke-opacity:0.1; fill:none" points="186.274,1486.45 1152.76,1486.45 "/>
<polyline clip-path="url(#clip802)" style="stroke:#000000; stroke-linecap:round; stroke-linejoin:round; stroke-width:2; stroke-opacity:0.1; fill:none" points="186.274,1186.61 1152.76,1186.61 "/>
<polyline clip-path="url(#clip802)" style="stroke:#000000; stroke-linecap:round; stroke-linejoin:round; stroke-width:2; stroke-opacity:0.1; fill:none" points="186.274,886.78 1152.76,886.78 "/>
<polyline clip-path="url(#clip802)" style="stroke:#000000; stroke-linecap:round; stroke-linejoin:round; stroke-width:2; stroke-opacity:0.1; fill:none" points="186.274,586.946 1152.76,586.946 "/>
<polyline clip-path="url(#clip802)" style="stroke:#000000; stroke-linecap:round; stroke-linejoin:round; stroke-width:2; stroke-opacity:0.1; fill:none" points="186.274,287.111 1152.76,287.111 "/>
<polyline clip-path="url(#clip800)" style="stroke:#000000; stroke-linecap:round; stroke-linejoin:round; stroke-width:4; stroke-opacity:1; fill:none" points="186.274,1486.45 186.274,47.2441 "/>
<polyline clip-path="url(#clip800)" style="stroke:#000000; stroke-linecap:round; stroke-linejoin:round; stroke-width:4; stroke-opacity:1; fill:none" points="186.274,1486.45 205.172,1486.45 "/>
<polyline clip-path="url(#clip800)" style="stroke:#000000; stroke-linecap:round; stroke-linejoin:round; stroke-width:4; stroke-opacity:1; fill:none" points="186.274,1186.61 205.172,1186.61 "/>
<polyline clip-path="url(#clip800)" style="stroke:#000000; stroke-linecap:round; stroke-linejoin:round; stroke-width:4; stroke-opacity:1; fill:none" points="186.274,886.78 205.172,886.78 "/>
<polyline clip-path="url(#clip800)" style="stroke:#000000; stroke-linecap:round; stroke-linejoin:round; stroke-width:4; stroke-opacity:1; fill:none" points="186.274,586.946 205.172,586.946 "/>
<polyline clip-path="url(#clip800)" style="stroke:#000000; stroke-linecap:round; stroke-linejoin:round; stroke-width:4; stroke-opacity:1; fill:none" points="186.274,287.111 205.172,287.111 "/>
<path clip-path="url(#clip800)" d="M62.9365 1472.25 Q59.3254 1472.25 57.4967 1475.81 Q55.6912 1479.35 55.6912 1486.48 Q55.6912 1493.59 57.4967 1497.15 Q59.3254 1500.7 62.9365 1500.7 Q66.5707 1500.7 68.3763 1497.15 Q70.205 1493.59 70.205 1486.48 Q70.205 1479.35 68.3763 1475.81 Q66.5707 1472.25 62.9365 1472.25 M62.9365 1468.54 Q68.7467 1468.54 71.8022 1473.15 Q74.8809 1477.73 74.8809 1486.48 Q74.8809 1495.21 71.8022 1499.82 Q68.7467 1504.4 62.9365 1504.4 Q57.1264 1504.4 54.0477 1499.82 Q50.9921 1495.21 50.9921 1486.48 Q50.9921 1477.73 54.0477 1473.15 Q57.1264 1468.54 62.9365 1468.54 Z" fill="#000000" fill-rule="nonzero" fill-opacity="1" /><path clip-path="url(#clip800)" d="M83.0984 1497.85 L87.9827 1497.85 L87.9827 1503.73 L83.0984 1503.73 L83.0984 1497.85 Z" fill="#000000" fill-rule="nonzero" fill-opacity="1" /><path clip-path="url(#clip800)" d="M108.168 1472.25 Q104.557 1472.25 102.728 1475.81 Q100.922 1479.35 100.922 1486.48 Q100.922 1493.59 102.728 1497.15 Q104.557 1500.7 108.168 1500.7 Q111.802 1500.7 113.608 1497.15 Q115.436 1493.59 115.436 1486.48 Q115.436 1479.35 113.608 1475.81 Q111.802 1472.25 108.168 1472.25 M108.168 1468.54 Q113.978 1468.54 117.033 1473.15 Q120.112 1477.73 120.112 1486.48 Q120.112 1495.21 117.033 1499.82 Q113.978 1504.4 108.168 1504.4 Q102.358 1504.4 99.2789 1499.82 Q96.2234 1495.21 96.2234 1486.48 Q96.2234 1477.73 99.2789 1473.15 Q102.358 1468.54 108.168 1468.54 Z" fill="#000000" fill-rule="nonzero" fill-opacity="1" /><path clip-path="url(#clip800)" d="M138.33 1472.25 Q134.719 1472.25 132.89 1475.81 Q131.084 1479.35 131.084 1486.48 Q131.084 1493.59 132.89 1497.15 Q134.719 1500.7 138.33 1500.7 Q141.964 1500.7 143.769 1497.15 Q145.598 1493.59 145.598 1486.48 Q145.598 1479.35 143.769 1475.81 Q141.964 1472.25 138.33 1472.25 M138.33 1468.54 Q144.14 1468.54 147.195 1473.15 Q150.274 1477.73 150.274 1486.48 Q150.274 1495.21 147.195 1499.82 Q144.14 1504.4 138.33 1504.4 Q132.519 1504.4 129.441 1499.82 Q126.385 1495.21 126.385 1486.48 Q126.385 1477.73 129.441 1473.15 Q132.519 1468.54 138.33 1468.54 Z" fill="#000000" fill-rule="nonzero" fill-opacity="1" /><path clip-path="url(#clip800)" d="M63.9319 1172.41 Q60.3208 1172.41 58.4921 1175.98 Q56.6865 1179.52 56.6865 1186.65 Q56.6865 1193.75 58.4921 1197.32 Q60.3208 1200.86 63.9319 1200.86 Q67.5661 1200.86 69.3717 1197.32 Q71.2004 1193.75 71.2004 1186.65 Q71.2004 1179.52 69.3717 1175.98 Q67.5661 1172.41 63.9319 1172.41 M63.9319 1168.71 Q69.742 1168.71 72.7976 1173.32 Q75.8763 1177.9 75.8763 1186.65 Q75.8763 1195.38 72.7976 1199.98 Q69.742 1204.57 63.9319 1204.57 Q58.1217 1204.57 55.043 1199.98 Q51.9875 1195.38 51.9875 1186.65 Q51.9875 1177.9 55.043 1173.32 Q58.1217 1168.71 63.9319 1168.71 Z" fill="#000000" fill-rule="nonzero" fill-opacity="1" /><path clip-path="url(#clip800)" d="M84.0938 1198.01 L88.978 1198.01 L88.978 1203.89 L84.0938 1203.89 L84.0938 1198.01 Z" fill="#000000" fill-rule="nonzero" fill-opacity="1" /><path clip-path="url(#clip800)" d="M103.191 1199.96 L119.51 1199.96 L119.51 1203.89 L97.566 1203.89 L97.566 1199.96 Q100.228 1197.2 104.811 1192.57 Q109.418 1187.92 110.598 1186.58 Q112.844 1184.06 113.723 1182.32 Q114.626 1180.56 114.626 1178.87 Q114.626 1176.12 112.682 1174.38 Q110.76 1172.64 107.658 1172.64 Q105.459 1172.64 103.006 1173.41 Q100.575 1174.17 97.7974 1175.72 L97.7974 1171 Q100.621 1169.87 103.075 1169.29 Q105.529 1168.71 107.566 1168.71 Q112.936 1168.71 116.131 1171.39 Q119.325 1174.08 119.325 1178.57 Q119.325 1180.7 118.515 1182.62 Q117.728 1184.52 115.621 1187.11 Q115.043 1187.78 111.941 1191 Q108.839 1194.19 103.191 1199.96 Z" fill="#000000" fill-rule="nonzero" fill-opacity="1" /><path clip-path="url(#clip800)" d="M129.371 1169.33 L147.728 1169.33 L147.728 1173.27 L133.654 1173.27 L133.654 1181.74 Q134.672 1181.39 135.691 1181.23 Q136.709 1181.05 137.728 1181.05 Q143.515 1181.05 146.894 1184.22 Q150.274 1187.39 150.274 1192.81 Q150.274 1198.38 146.802 1201.49 Q143.33 1204.57 137.01 1204.57 Q134.834 1204.57 132.566 1204.19 Q130.32 1203.82 127.913 1203.08 L127.913 1198.38 Q129.996 1199.52 132.219 1200.07 Q134.441 1200.63 136.918 1200.63 Q140.922 1200.63 143.26 1198.52 Q145.598 1196.42 145.598 1192.81 Q145.598 1189.19 143.26 1187.09 Q140.922 1184.98 136.918 1184.98 Q135.043 1184.98 133.168 1185.4 Q131.316 1185.82 129.371 1186.69 L129.371 1169.33 Z" fill="#000000" fill-rule="nonzero" fill-opacity="1" /><path clip-path="url(#clip800)" d="M62.9365 872.578 Q59.3254 872.578 57.4967 876.143 Q55.6912 879.685 55.6912 886.814 Q55.6912 893.921 57.4967 897.486 Q59.3254 901.027 62.9365 901.027 Q66.5707 901.027 68.3763 897.486 Q70.205 893.921 70.205 886.814 Q70.205 879.685 68.3763 876.143 Q66.5707 872.578 62.9365 872.578 M62.9365 868.875 Q68.7467 868.875 71.8022 873.481 Q74.8809 878.064 74.8809 886.814 Q74.8809 895.541 71.8022 900.148 Q68.7467 904.731 62.9365 904.731 Q57.1264 904.731 54.0477 900.148 Q50.9921 895.541 50.9921 886.814 Q50.9921 878.064 54.0477 873.481 Q57.1264 868.875 62.9365 868.875 Z" fill="#000000" fill-rule="nonzero" fill-opacity="1" /><path clip-path="url(#clip800)" d="M83.0984 898.18 L87.9827 898.18 L87.9827 904.06 L83.0984 904.06 L83.0984 898.18 Z" fill="#000000" fill-rule="nonzero" fill-opacity="1" /><path clip-path="url(#clip800)" d="M98.2141 869.5 L116.57 869.5 L116.57 873.435 L102.496 873.435 L102.496 881.907 Q103.515 881.56 104.534 881.398 Q105.552 881.213 106.571 881.213 Q112.358 881.213 115.737 884.384 Q119.117 887.555 119.117 892.972 Q119.117 898.55 115.645 901.652 Q112.172 904.731 105.853 904.731 Q103.677 904.731 101.409 904.361 Q99.1632 903.99 96.7558 903.249 L96.7558 898.55 Q98.8391 899.685 101.061 900.24 Q103.284 900.796 105.76 900.796 Q109.765 900.796 112.103 898.689 Q114.441 896.583 114.441 892.972 Q114.441 889.361 112.103 887.254 Q109.765 885.148 105.76 885.148 Q103.885 885.148 102.01 885.564 Q100.159 885.981 98.2141 886.861 L98.2141 869.5 Z" fill="#000000" fill-rule="nonzero" fill-opacity="1" /><path clip-path="url(#clip800)" d="M138.33 872.578 Q134.719 872.578 132.89 876.143 Q131.084 879.685 131.084 886.814 Q131.084 893.921 132.89 897.486 Q134.719 901.027 138.33 901.027 Q141.964 901.027 143.769 897.486 Q145.598 893.921 145.598 886.814 Q145.598 879.685 143.769 876.143 Q141.964 872.578 138.33 872.578 M138.33 868.875 Q144.14 868.875 147.195 873.481 Q150.274 878.064 150.274 886.814 Q150.274 895.541 147.195 900.148 Q144.14 904.731 138.33 904.731 Q132.519 904.731 129.441 900.148 Q126.385 895.541 126.385 886.814 Q126.385 878.064 129.441 873.481 Q132.519 868.875 138.33 868.875 Z" fill="#000000" fill-rule="nonzero" fill-opacity="1" /><path clip-path="url(#clip800)" d="M63.9319 572.744 Q60.3208 572.744 58.4921 576.309 Q56.6865 579.851 56.6865 586.98 Q56.6865 594.087 58.4921 597.651 Q60.3208 601.193 63.9319 601.193 Q67.5661 601.193 69.3717 597.651 Q71.2004 594.087 71.2004 586.98 Q71.2004 579.851 69.3717 576.309 Q67.5661 572.744 63.9319 572.744 M63.9319 569.041 Q69.742 569.041 72.7976 573.647 Q75.8763 578.23 75.8763 586.98 Q75.8763 595.707 72.7976 600.313 Q69.742 604.897 63.9319 604.897 Q58.1217 604.897 55.043 600.313 Q51.9875 595.707 51.9875 586.98 Q51.9875 578.23 55.043 573.647 Q58.1217 569.041 63.9319 569.041 Z" fill="#000000" fill-rule="nonzero" fill-opacity="1" /><path clip-path="url(#clip800)" d="M84.0938 598.346 L88.978 598.346 L88.978 604.226 L84.0938 604.226 L84.0938 598.346 Z" fill="#000000" fill-rule="nonzero" fill-opacity="1" /><path clip-path="url(#clip800)" d="M97.9826 569.666 L120.205 569.666 L120.205 571.656 L107.658 604.226 L102.774 604.226 L114.58 573.601 L97.9826 573.601 L97.9826 569.666 Z" fill="#000000" fill-rule="nonzero" fill-opacity="1" /><path clip-path="url(#clip800)" d="M129.371 569.666 L147.728 569.666 L147.728 573.601 L133.654 573.601 L133.654 582.073 Q134.672 581.726 135.691 581.564 Q136.709 581.378 137.728 581.378 Q143.515 581.378 146.894 584.55 Q150.274 587.721 150.274 593.138 Q150.274 598.716 146.802 601.818 Q143.33 604.897 137.01 604.897 Q134.834 604.897 132.566 604.526 Q130.32 604.156 127.913 603.415 L127.913 598.716 Q129.996 599.851 132.219 600.406 Q134.441 600.962 136.918 600.962 Q140.922 600.962 143.26 598.855 Q145.598 596.749 145.598 593.138 Q145.598 589.527 143.26 587.42 Q140.922 585.314 136.918 585.314 Q135.043 585.314 133.168 585.73 Q131.316 586.147 129.371 587.027 L129.371 569.666 Z" fill="#000000" fill-rule="nonzero" fill-opacity="1" /><path clip-path="url(#clip800)" d="M53.7467 300.456 L61.3856 300.456 L61.3856 274.091 L53.0754 275.757 L53.0754 271.498 L61.3393 269.831 L66.0152 269.831 L66.0152 300.456 L73.654 300.456 L73.654 304.391 L53.7467 304.391 L53.7467 300.456 Z" fill="#000000" fill-rule="nonzero" fill-opacity="1" /><path clip-path="url(#clip800)" d="M83.0984 298.512 L87.9827 298.512 L87.9827 304.391 L83.0984 304.391 L83.0984 298.512 Z" fill="#000000" fill-rule="nonzero" fill-opacity="1" /><path clip-path="url(#clip800)" d="M108.168 272.91 Q104.557 272.91 102.728 276.475 Q100.922 280.017 100.922 287.146 Q100.922 294.253 102.728 297.817 Q104.557 301.359 108.168 301.359 Q111.802 301.359 113.608 297.817 Q115.436 294.253 115.436 287.146 Q115.436 280.017 113.608 276.475 Q111.802 272.91 108.168 272.91 M108.168 269.206 Q113.978 269.206 117.033 273.813 Q120.112 278.396 120.112 287.146 Q120.112 295.873 117.033 300.479 Q113.978 305.063 108.168 305.063 Q102.358 305.063 99.2789 300.479 Q96.2234 295.873 96.2234 287.146 Q96.2234 278.396 99.2789 273.813 Q102.358 269.206 108.168 269.206 Z" fill="#000000" fill-rule="nonzero" fill-opacity="1" /><path clip-path="url(#clip800)" d="M138.33 272.91 Q134.719 272.91 132.89 276.475 Q131.084 280.017 131.084 287.146 Q131.084 294.253 132.89 297.817 Q134.719 301.359 138.33 301.359 Q141.964 301.359 143.769 297.817 Q145.598 294.253 145.598 287.146 Q145.598 280.017 143.769 276.475 Q141.964 272.91 138.33 272.91 M138.33 269.206 Q144.14 269.206 147.195 273.813 Q150.274 278.396 150.274 287.146 Q150.274 295.873 147.195 300.479 Q144.14 305.063 138.33 305.063 Q132.519 305.063 129.441 300.479 Q126.385 295.873 126.385 287.146 Q126.385 278.396 129.441 273.813 Q132.519 269.206 138.33 269.206 Z" fill="#000000" fill-rule="nonzero" fill-opacity="1" /><path clip-path="url(#clip802)" d="M282.922 886.78 L282.922 1486.45 L411.786 1486.45 L411.786 886.78 L282.922 886.78 L282.922 886.78  Z" fill="#009af9" fill-rule="evenodd" fill-opacity="1"/>
<polyline clip-path="url(#clip802)" style="stroke:#000000; stroke-linecap:round; stroke-linejoin:round; stroke-width:4; stroke-opacity:1; fill:none" points="282.922,886.78 282.922,1486.45 411.786,1486.45 411.786,886.78 282.922,886.78 "/>
<path clip-path="url(#clip802)" d="M444.003 287.111 L444.003 1486.45 L572.867 1486.45 L572.867 287.111 L444.003 287.111 L444.003 287.111  Z" fill="#009af9" fill-rule="evenodd" fill-opacity="1"/>
<polyline clip-path="url(#clip802)" style="stroke:#000000; stroke-linecap:round; stroke-linejoin:round; stroke-width:4; stroke-opacity:1; fill:none" points="444.003,287.111 444.003,1486.45 572.867,1486.45 572.867,287.111 444.003,287.111 "/>
<path clip-path="url(#clip802)" d="M605.083 287.111 L605.083 1486.45 L733.947 1486.45 L733.947 287.111 L605.083 287.111 L605.083 287.111  Z" fill="#009af9" fill-rule="evenodd" fill-opacity="1"/>
<polyline clip-path="url(#clip802)" style="stroke:#000000; stroke-linecap:round; stroke-linejoin:round; stroke-width:4; stroke-opacity:1; fill:none" points="605.083,287.111 605.083,1486.45 733.947,1486.45 733.947,287.111 605.083,287.111 "/>
<path clip-path="url(#clip802)" d="M766.163 886.78 L766.163 1486.45 L895.027 1486.45 L895.027 886.78 L766.163 886.78 L766.163 886.78  Z" fill="#009af9" fill-rule="evenodd" fill-opacity="1"/>
<polyline clip-path="url(#clip802)" style="stroke:#000000; stroke-linecap:round; stroke-linejoin:round; stroke-width:4; stroke-opacity:1; fill:none" points="766.163,886.78 766.163,1486.45 895.027,1486.45 895.027,886.78 766.163,886.78 "/>
<circle clip-path="url(#clip802)" style="fill:#009af9; stroke:none; fill-opacity:0" cx="347.354" cy="886.78" r="2"/>
<circle clip-path="url(#clip802)" style="fill:#009af9; stroke:none; fill-opacity:0" cx="508.435" cy="287.111" r="2"/>
<circle clip-path="url(#clip802)" style="fill:#009af9; stroke:none; fill-opacity:0" cx="669.515" cy="287.111" r="2"/>
<circle clip-path="url(#clip802)" style="fill:#009af9; stroke:none; fill-opacity:0" cx="830.595" cy="886.78" r="2"/>
<path clip-path="url(#clip800)" d="M218.49 198.898 L337.036 198.898 L337.036 95.2176 L218.49 95.2176  Z" fill="#ffffff" fill-rule="evenodd" fill-opacity="1"/>
<polyline clip-path="url(#clip800)" style="stroke:#000000; stroke-linecap:round; stroke-linejoin:round; stroke-width:4; stroke-opacity:1; fill:none" points="218.49,198.898 337.036,198.898 337.036,95.2176 218.49,95.2176 218.49,198.898 "/>
<path clip-path="url(#clip800)" d="M229.229 167.794 L293.661 167.794 L293.661 126.322 L229.229 126.322 L229.229 167.794  Z" fill="#009af9" fill-rule="evenodd" fill-opacity="1"/>
<polyline clip-path="url(#clip800)" style="stroke:#000000; stroke-linecap:round; stroke-linejoin:round; stroke-width:4; stroke-opacity:1; fill:none" points="229.229,167.794 293.661,167.794 293.661,126.322 229.229,126.322 229.229,167.794 "/>
<path clip-path="url(#clip800)" d="M317.802 151.305 Q312.64 151.305 310.65 152.486 Q308.659 153.666 308.659 156.514 Q308.659 158.782 310.14 160.125 Q311.645 161.444 314.214 161.444 Q317.756 161.444 319.886 158.944 Q322.038 156.421 322.038 152.254 L322.038 151.305 L317.802 151.305 M326.298 149.546 L326.298 164.338 L322.038 164.338 L322.038 160.402 Q320.58 162.763 318.404 163.898 Q316.228 165.009 313.08 165.009 Q309.099 165.009 306.738 162.787 Q304.4 160.541 304.4 156.791 Q304.4 152.416 307.316 150.194 Q310.256 147.972 316.066 147.972 L322.038 147.972 L322.038 147.555 Q322.038 144.615 320.094 143.018 Q318.173 141.398 314.677 141.398 Q312.455 141.398 310.349 141.93 Q308.242 142.463 306.298 143.527 L306.298 139.592 Q308.636 138.69 310.835 138.25 Q313.034 137.787 315.117 137.787 Q320.742 137.787 323.52 140.703 Q326.298 143.62 326.298 149.546 Z" fill="#000000" fill-rule="nonzero" fill-opacity="1" /><path clip-path="url(#clip800)" d="M1386.27 1486.45 L2352.76 1486.45 L2352.76 47.2441 L1386.27 47.2441  Z" fill="#ffffff" fill-rule="evenodd" fill-opacity="1"/>
<defs>
  <clipPath id="clip803">
    <rect x="1386" y="47" width="967" height="1440"/>
  </clipPath>
</defs>
<polyline clip-path="url(#clip803)" style="stroke:#000000; stroke-linecap:round; stroke-linejoin:round; stroke-width:2; stroke-opacity:0.1; fill:none" points="1386.27,1486.45 1386.27,47.2441 "/>
<polyline clip-path="url(#clip803)" style="stroke:#000000; stroke-linecap:round; stroke-linejoin:round; stroke-width:2; stroke-opacity:0.1; fill:none" points="1547.35,1486.45 1547.35,47.2441 "/>
<polyline clip-path="url(#clip803)" style="stroke:#000000; stroke-linecap:round; stroke-linejoin:round; stroke-width:2; stroke-opacity:0.1; fill:none" points="1708.43,1486.45 1708.43,47.2441 "/>
<polyline clip-path="url(#clip803)" style="stroke:#000000; stroke-linecap:round; stroke-linejoin:round; stroke-width:2; stroke-opacity:0.1; fill:none" points="1869.51,1486.45 1869.51,47.2441 "/>
<polyline clip-path="url(#clip803)" style="stroke:#000000; stroke-linecap:round; stroke-linejoin:round; stroke-width:2; stroke-opacity:0.1; fill:none" points="2030.6,1486.45 2030.6,47.2441 "/>
<polyline clip-path="url(#clip803)" style="stroke:#000000; stroke-linecap:round; stroke-linejoin:round; stroke-width:2; stroke-opacity:0.1; fill:none" points="2191.68,1486.45 2191.68,47.2441 "/>
<polyline clip-path="url(#clip803)" style="stroke:#000000; stroke-linecap:round; stroke-linejoin:round; stroke-width:2; stroke-opacity:0.1; fill:none" points="2352.76,1486.45 2352.76,47.2441 "/>
<polyline clip-path="url(#clip800)" style="stroke:#000000; stroke-linecap:round; stroke-linejoin:round; stroke-width:4; stroke-opacity:1; fill:none" points="1386.27,1486.45 2352.76,1486.45 "/>
<polyline clip-path="url(#clip800)" style="stroke:#000000; stroke-linecap:round; stroke-linejoin:round; stroke-width:4; stroke-opacity:1; fill:none" points="1386.27,1486.45 1386.27,1467.55 "/>
<polyline clip-path="url(#clip800)" style="stroke:#000000; stroke-linecap:round; stroke-linejoin:round; stroke-width:4; stroke-opacity:1; fill:none" points="1547.35,1486.45 1547.35,1467.55 "/>
<polyline clip-path="url(#clip800)" style="stroke:#000000; stroke-linecap:round; stroke-linejoin:round; stroke-width:4; stroke-opacity:1; fill:none" points="1708.43,1486.45 1708.43,1467.55 "/>
<polyline clip-path="url(#clip800)" style="stroke:#000000; stroke-linecap:round; stroke-linejoin:round; stroke-width:4; stroke-opacity:1; fill:none" points="1869.51,1486.45 1869.51,1467.55 "/>
<polyline clip-path="url(#clip800)" style="stroke:#000000; stroke-linecap:round; stroke-linejoin:round; stroke-width:4; stroke-opacity:1; fill:none" points="2030.6,1486.45 2030.6,1467.55 "/>
<polyline clip-path="url(#clip800)" style="stroke:#000000; stroke-linecap:round; stroke-linejoin:round; stroke-width:4; stroke-opacity:1; fill:none" points="2191.68,1486.45 2191.68,1467.55 "/>
<polyline clip-path="url(#clip800)" style="stroke:#000000; stroke-linecap:round; stroke-linejoin:round; stroke-width:4; stroke-opacity:1; fill:none" points="2352.76,1486.45 2352.76,1467.55 "/>
<path clip-path="url(#clip800)" d="M1386.27 1517.37 Q1382.66 1517.37 1380.83 1520.93 Q1379.03 1524.47 1379.03 1531.6 Q1379.03 1538.71 1380.83 1542.27 Q1382.66 1545.82 1386.27 1545.82 Q1389.91 1545.82 1391.71 1542.27 Q1393.54 1538.71 1393.54 1531.6 Q1393.54 1524.47 1391.71 1520.93 Q1389.91 1517.37 1386.27 1517.37 M1386.27 1513.66 Q1392.08 1513.66 1395.14 1518.27 Q1398.22 1522.85 1398.22 1531.6 Q1398.22 1540.33 1395.14 1544.94 Q1392.08 1549.52 1386.27 1549.52 Q1380.46 1549.52 1377.39 1544.94 Q1374.33 1540.33 1374.33 1531.6 Q1374.33 1522.85 1377.39 1518.27 Q1380.46 1513.66 1386.27 1513.66 Z" fill="#000000" fill-rule="nonzero" fill-opacity="1" /><path clip-path="url(#clip800)" d="M1537.74 1544.91 L1545.38 1544.91 L1545.38 1518.55 L1537.07 1520.21 L1537.07 1515.95 L1545.33 1514.29 L1550 1514.29 L1550 1544.91 L1557.64 1544.91 L1557.64 1548.85 L1537.74 1548.85 L1537.74 1544.91 Z" fill="#000000" fill-rule="nonzero" fill-opacity="1" /><path clip-path="url(#clip800)" d="M1703.09 1544.91 L1719.41 1544.91 L1719.41 1548.85 L1697.46 1548.85 L1697.46 1544.91 Q1700.12 1542.16 1704.71 1537.53 Q1709.31 1532.88 1710.49 1531.53 Q1712.74 1529.01 1713.62 1527.27 Q1714.52 1525.51 1714.52 1523.82 Q1714.52 1521.07 1712.58 1519.33 Q1710.66 1517.6 1707.56 1517.6 Q1705.36 1517.6 1702.9 1518.36 Q1700.47 1519.13 1697.69 1520.68 L1697.69 1515.95 Q1700.52 1514.82 1702.97 1514.24 Q1705.43 1513.66 1707.46 1513.66 Q1712.83 1513.66 1716.03 1516.35 Q1719.22 1519.03 1719.22 1523.52 Q1719.22 1525.65 1718.41 1527.57 Q1717.62 1529.47 1715.52 1532.07 Q1714.94 1532.74 1711.84 1535.95 Q1708.74 1539.15 1703.09 1544.91 Z" fill="#000000" fill-rule="nonzero" fill-opacity="1" /><path clip-path="url(#clip800)" d="M1873.76 1530.21 Q1877.12 1530.93 1878.99 1533.2 Q1880.89 1535.47 1880.89 1538.8 Q1880.89 1543.92 1877.37 1546.72 Q1873.86 1549.52 1867.37 1549.52 Q1865.2 1549.52 1862.88 1549.08 Q1860.59 1548.66 1858.14 1547.81 L1858.14 1543.29 Q1860.08 1544.43 1862.4 1545.01 Q1864.71 1545.58 1867.23 1545.58 Q1871.63 1545.58 1873.92 1543.85 Q1876.24 1542.11 1876.24 1538.8 Q1876.24 1535.75 1874.09 1534.03 Q1871.96 1532.3 1868.14 1532.3 L1864.11 1532.3 L1864.11 1528.45 L1868.32 1528.45 Q1871.77 1528.45 1873.6 1527.09 Q1875.43 1525.7 1875.43 1523.11 Q1875.43 1520.45 1873.53 1519.03 Q1871.66 1517.6 1868.14 1517.6 Q1866.22 1517.6 1864.02 1518.01 Q1861.82 1518.43 1859.18 1519.31 L1859.18 1515.14 Q1861.84 1514.4 1864.16 1514.03 Q1866.49 1513.66 1868.55 1513.66 Q1873.88 1513.66 1876.98 1516.09 Q1880.08 1518.5 1880.08 1522.62 Q1880.08 1525.49 1878.44 1527.48 Q1876.8 1529.45 1873.76 1530.21 Z" fill="#000000" fill-rule="nonzero" fill-opacity="1" /><path clip-path="url(#clip800)" d="M2033.6 1518.36 L2021.8 1536.81 L2033.6 1536.81 L2033.6 1518.36 M2032.38 1514.29 L2038.26 1514.29 L2038.26 1536.81 L2043.19 1536.81 L2043.19 1540.7 L2038.26 1540.7 L2038.26 1548.85 L2033.6 1548.85 L2033.6 1540.7 L2018 1540.7 L2018 1536.19 L2032.38 1514.29 Z" fill="#000000" fill-rule="nonzero" fill-opacity="1" /><path clip-path="url(#clip800)" d="M2181.95 1514.29 L2200.31 1514.29 L2200.31 1518.22 L2186.24 1518.22 L2186.24 1526.7 Q2187.25 1526.35 2188.27 1526.19 Q2189.29 1526 2190.31 1526 Q2196.1 1526 2199.48 1529.17 Q2202.86 1532.34 2202.86 1537.76 Q2202.86 1543.34 2199.38 1546.44 Q2195.91 1549.52 2189.59 1549.52 Q2187.42 1549.52 2185.15 1549.15 Q2182.9 1548.78 2180.5 1548.04 L2180.5 1543.34 Q2182.58 1544.47 2184.8 1545.03 Q2187.02 1545.58 2189.5 1545.58 Q2193.5 1545.58 2195.84 1543.48 Q2198.18 1541.37 2198.18 1537.76 Q2198.18 1534.15 2195.84 1532.04 Q2193.5 1529.94 2189.5 1529.94 Q2187.62 1529.94 2185.75 1530.35 Q2183.9 1530.77 2181.95 1531.65 L2181.95 1514.29 Z" fill="#000000" fill-rule="nonzero" fill-opacity="1" /><path clip-path="url(#clip800)" d="M2353.16 1529.7 Q2350.01 1529.7 2348.16 1531.86 Q2346.33 1534.01 2346.33 1537.76 Q2346.33 1541.49 2348.16 1543.66 Q2350.01 1545.82 2353.16 1545.82 Q2356.31 1545.82 2358.14 1543.66 Q2359.99 1541.49 2359.99 1537.76 Q2359.99 1534.01 2358.14 1531.86 Q2356.31 1529.7 2353.16 1529.7 M2362.44 1515.05 L2362.44 1519.31 Q2360.68 1518.48 2358.88 1518.04 Q2357.1 1517.6 2355.34 1517.6 Q2350.71 1517.6 2348.25 1520.72 Q2345.82 1523.85 2345.48 1530.17 Q2346.84 1528.15 2348.9 1527.09 Q2350.96 1526 2353.44 1526 Q2358.65 1526 2361.66 1529.17 Q2364.69 1532.32 2364.69 1537.76 Q2364.69 1543.08 2361.54 1546.3 Q2358.39 1549.52 2353.16 1549.52 Q2347.17 1549.52 2343.99 1544.94 Q2340.82 1540.33 2340.82 1531.6 Q2340.82 1523.41 2344.71 1518.55 Q2348.6 1513.66 2355.15 1513.66 Q2356.91 1513.66 2358.69 1514.01 Q2360.5 1514.36 2362.44 1515.05 Z" fill="#000000" fill-rule="nonzero" fill-opacity="1" /><polyline clip-path="url(#clip803)" style="stroke:#000000; stroke-linecap:round; stroke-linejoin:round; stroke-width:2; stroke-opacity:0.1; fill:none" points="1386.27,1486.45 2352.76,1486.45 "/>
<polyline clip-path="url(#clip803)" style="stroke:#000000; stroke-linecap:round; stroke-linejoin:round; stroke-width:2; stroke-opacity:0.1; fill:none" points="1386.27,1186.61 2352.76,1186.61 "/>
<polyline clip-path="url(#clip803)" style="stroke:#000000; stroke-linecap:round; stroke-linejoin:round; stroke-width:2; stroke-opacity:0.1; fill:none" points="1386.27,886.78 2352.76,886.78 "/>
<polyline clip-path="url(#clip803)" style="stroke:#000000; stroke-linecap:round; stroke-linejoin:round; stroke-width:2; stroke-opacity:0.1; fill:none" points="1386.27,586.946 2352.76,586.946 "/>
<polyline clip-path="url(#clip803)" style="stroke:#000000; stroke-linecap:round; stroke-linejoin:round; stroke-width:2; stroke-opacity:0.1; fill:none" points="1386.27,287.111 2352.76,287.111 "/>
<polyline clip-path="url(#clip800)" style="stroke:#000000; stroke-linecap:round; stroke-linejoin:round; stroke-width:4; stroke-opacity:1; fill:none" points="1386.27,1486.45 1386.27,47.2441 "/>
<polyline clip-path="url(#clip800)" style="stroke:#000000; stroke-linecap:round; stroke-linejoin:round; stroke-width:4; stroke-opacity:1; fill:none" points="1386.27,1486.45 1405.17,1486.45 "/>
<polyline clip-path="url(#clip800)" style="stroke:#000000; stroke-linecap:round; stroke-linejoin:round; stroke-width:4; stroke-opacity:1; fill:none" points="1386.27,1186.61 1405.17,1186.61 "/>
<polyline clip-path="url(#clip800)" style="stroke:#000000; stroke-linecap:round; stroke-linejoin:round; stroke-width:4; stroke-opacity:1; fill:none" points="1386.27,886.78 1405.17,886.78 "/>
<polyline clip-path="url(#clip800)" style="stroke:#000000; stroke-linecap:round; stroke-linejoin:round; stroke-width:4; stroke-opacity:1; fill:none" points="1386.27,586.946 1405.17,586.946 "/>
<polyline clip-path="url(#clip800)" style="stroke:#000000; stroke-linecap:round; stroke-linejoin:round; stroke-width:4; stroke-opacity:1; fill:none" points="1386.27,287.111 1405.17,287.111 "/>
<path clip-path="url(#clip800)" d="M1262.94 1472.25 Q1259.33 1472.25 1257.5 1475.81 Q1255.69 1479.35 1255.69 1486.48 Q1255.69 1493.59 1257.5 1497.15 Q1259.33 1500.7 1262.94 1500.7 Q1266.57 1500.7 1268.38 1497.15 Q1270.2 1493.59 1270.2 1486.48 Q1270.2 1479.35 1268.38 1475.81 Q1266.57 1472.25 1262.94 1472.25 M1262.94 1468.54 Q1268.75 1468.54 1271.8 1473.15 Q1274.88 1477.73 1274.88 1486.48 Q1274.88 1495.21 1271.8 1499.82 Q1268.75 1504.4 1262.94 1504.4 Q1257.13 1504.4 1254.05 1499.82 Q1250.99 1495.21 1250.99 1486.48 Q1250.99 1477.73 1254.05 1473.15 Q1257.13 1468.54 1262.94 1468.54 Z" fill="#000000" fill-rule="nonzero" fill-opacity="1" /><path clip-path="url(#clip800)" d="M1283.1 1497.85 L1287.98 1497.85 L1287.98 1503.73 L1283.1 1503.73 L1283.1 1497.85 Z" fill="#000000" fill-rule="nonzero" fill-opacity="1" /><path clip-path="url(#clip800)" d="M1308.17 1472.25 Q1304.56 1472.25 1302.73 1475.81 Q1300.92 1479.35 1300.92 1486.48 Q1300.92 1493.59 1302.73 1497.15 Q1304.56 1500.7 1308.17 1500.7 Q1311.8 1500.7 1313.61 1497.15 Q1315.44 1493.59 1315.44 1486.48 Q1315.44 1479.35 1313.61 1475.81 Q1311.8 1472.25 1308.17 1472.25 M1308.17 1468.54 Q1313.98 1468.54 1317.03 1473.15 Q1320.11 1477.73 1320.11 1486.48 Q1320.11 1495.21 1317.03 1499.82 Q1313.98 1504.4 1308.17 1504.4 Q1302.36 1504.4 1299.28 1499.82 Q1296.22 1495.21 1296.22 1486.48 Q1296.22 1477.73 1299.28 1473.15 Q1302.36 1468.54 1308.17 1468.54 Z" fill="#000000" fill-rule="nonzero" fill-opacity="1" /><path clip-path="url(#clip800)" d="M1338.33 1472.25 Q1334.72 1472.25 1332.89 1475.81 Q1331.08 1479.35 1331.08 1486.48 Q1331.08 1493.59 1332.89 1497.15 Q1334.72 1500.7 1338.33 1500.7 Q1341.96 1500.7 1343.77 1497.15 Q1345.6 1493.59 1345.6 1486.48 Q1345.6 1479.35 1343.77 1475.81 Q1341.96 1472.25 1338.33 1472.25 M1338.33 1468.54 Q1344.14 1468.54 1347.2 1473.15 Q1350.27 1477.73 1350.27 1486.48 Q1350.27 1495.21 1347.2 1499.82 Q1344.14 1504.4 1338.33 1504.4 Q1332.52 1504.4 1329.44 1499.82 Q1326.39 1495.21 1326.39 1486.48 Q1326.39 1477.73 1329.44 1473.15 Q1332.52 1468.54 1338.33 1468.54 Z" fill="#000000" fill-rule="nonzero" fill-opacity="1" /><path clip-path="url(#clip800)" d="M1263.93 1172.41 Q1260.32 1172.41 1258.49 1175.98 Q1256.69 1179.52 1256.69 1186.65 Q1256.69 1193.75 1258.49 1197.32 Q1260.32 1200.86 1263.93 1200.86 Q1267.57 1200.86 1269.37 1197.32 Q1271.2 1193.75 1271.2 1186.65 Q1271.2 1179.52 1269.37 1175.98 Q1267.57 1172.41 1263.93 1172.41 M1263.93 1168.71 Q1269.74 1168.71 1272.8 1173.32 Q1275.88 1177.9 1275.88 1186.65 Q1275.88 1195.38 1272.8 1199.98 Q1269.74 1204.57 1263.93 1204.57 Q1258.12 1204.57 1255.04 1199.98 Q1251.99 1195.38 1251.99 1186.65 Q1251.99 1177.9 1255.04 1173.32 Q1258.12 1168.71 1263.93 1168.71 Z" fill="#000000" fill-rule="nonzero" fill-opacity="1" /><path clip-path="url(#clip800)" d="M1284.09 1198.01 L1288.98 1198.01 L1288.98 1203.89 L1284.09 1203.89 L1284.09 1198.01 Z" fill="#000000" fill-rule="nonzero" fill-opacity="1" /><path clip-path="url(#clip800)" d="M1303.19 1199.96 L1319.51 1199.96 L1319.51 1203.89 L1297.57 1203.89 L1297.57 1199.96 Q1300.23 1197.2 1304.81 1192.57 Q1309.42 1187.92 1310.6 1186.58 Q1312.84 1184.06 1313.72 1182.32 Q1314.63 1180.56 1314.63 1178.87 Q1314.63 1176.12 1312.68 1174.38 Q1310.76 1172.64 1307.66 1172.64 Q1305.46 1172.64 1303.01 1173.41 Q1300.58 1174.17 1297.8 1175.72 L1297.8 1171 Q1300.62 1169.87 1303.08 1169.29 Q1305.53 1168.71 1307.57 1168.71 Q1312.94 1168.71 1316.13 1171.39 Q1319.33 1174.08 1319.33 1178.57 Q1319.33 1180.7 1318.51 1182.62 Q1317.73 1184.52 1315.62 1187.11 Q1315.04 1187.78 1311.94 1191 Q1308.84 1194.19 1303.19 1199.96 Z" fill="#000000" fill-rule="nonzero" fill-opacity="1" /><path clip-path="url(#clip800)" d="M1329.37 1169.33 L1347.73 1169.33 L1347.73 1173.27 L1333.65 1173.27 L1333.65 1181.74 Q1334.67 1181.39 1335.69 1181.23 Q1336.71 1181.05 1337.73 1181.05 Q1343.51 1181.05 1346.89 1184.22 Q1350.27 1187.39 1350.27 1192.81 Q1350.27 1198.38 1346.8 1201.49 Q1343.33 1204.57 1337.01 1204.57 Q1334.83 1204.57 1332.57 1204.19 Q1330.32 1203.82 1327.91 1203.08 L1327.91 1198.38 Q1330 1199.52 1332.22 1200.07 Q1334.44 1200.63 1336.92 1200.63 Q1340.92 1200.63 1343.26 1198.52 Q1345.6 1196.42 1345.6 1192.81 Q1345.6 1189.19 1343.26 1187.09 Q1340.92 1184.98 1336.92 1184.98 Q1335.04 1184.98 1333.17 1185.4 Q1331.32 1185.82 1329.37 1186.69 L1329.37 1169.33 Z" fill="#000000" fill-rule="nonzero" fill-opacity="1" /><path clip-path="url(#clip800)" d="M1262.94 872.578 Q1259.33 872.578 1257.5 876.143 Q1255.69 879.685 1255.69 886.814 Q1255.69 893.921 1257.5 897.486 Q1259.33 901.027 1262.94 901.027 Q1266.57 901.027 1268.38 897.486 Q1270.2 893.921 1270.2 886.814 Q1270.2 879.685 1268.38 876.143 Q1266.57 872.578 1262.94 872.578 M1262.94 868.875 Q1268.75 868.875 1271.8 873.481 Q1274.88 878.064 1274.88 886.814 Q1274.88 895.541 1271.8 900.148 Q1268.75 904.731 1262.94 904.731 Q1257.13 904.731 1254.05 900.148 Q1250.99 895.541 1250.99 886.814 Q1250.99 878.064 1254.05 873.481 Q1257.13 868.875 1262.94 868.875 Z" fill="#000000" fill-rule="nonzero" fill-opacity="1" /><path clip-path="url(#clip800)" d="M1283.1 898.18 L1287.98 898.18 L1287.98 904.06 L1283.1 904.06 L1283.1 898.18 Z" fill="#000000" fill-rule="nonzero" fill-opacity="1" /><path clip-path="url(#clip800)" d="M1298.21 869.5 L1316.57 869.5 L1316.57 873.435 L1302.5 873.435 L1302.5 881.907 Q1303.51 881.56 1304.53 881.398 Q1305.55 881.213 1306.57 881.213 Q1312.36 881.213 1315.74 884.384 Q1319.12 887.555 1319.12 892.972 Q1319.12 898.55 1315.64 901.652 Q1312.17 904.731 1305.85 904.731 Q1303.68 904.731 1301.41 904.361 Q1299.16 903.99 1296.76 903.249 L1296.76 898.55 Q1298.84 899.685 1301.06 900.24 Q1303.28 900.796 1305.76 900.796 Q1309.76 900.796 1312.1 898.689 Q1314.44 896.583 1314.44 892.972 Q1314.44 889.361 1312.1 887.254 Q1309.76 885.148 1305.76 885.148 Q1303.89 885.148 1302.01 885.564 Q1300.16 885.981 1298.21 886.861 L1298.21 869.5 Z" fill="#000000" fill-rule="nonzero" fill-opacity="1" /><path clip-path="url(#clip800)" d="M1338.33 872.578 Q1334.72 872.578 1332.89 876.143 Q1331.08 879.685 1331.08 886.814 Q1331.08 893.921 1332.89 897.486 Q1334.72 901.027 1338.33 901.027 Q1341.96 901.027 1343.77 897.486 Q1345.6 893.921 1345.6 886.814 Q1345.6 879.685 1343.77 876.143 Q1341.96 872.578 1338.33 872.578 M1338.33 868.875 Q1344.14 868.875 1347.2 873.481 Q1350.27 878.064 1350.27 886.814 Q1350.27 895.541 1347.2 900.148 Q1344.14 904.731 1338.33 904.731 Q1332.52 904.731 1329.44 900.148 Q1326.39 895.541 1326.39 886.814 Q1326.39 878.064 1329.44 873.481 Q1332.52 868.875 1338.33 868.875 Z" fill="#000000" fill-rule="nonzero" fill-opacity="1" /><path clip-path="url(#clip800)" d="M1263.93 572.744 Q1260.32 572.744 1258.49 576.309 Q1256.69 579.851 1256.69 586.98 Q1256.69 594.087 1258.49 597.651 Q1260.32 601.193 1263.93 601.193 Q1267.57 601.193 1269.37 597.651 Q1271.2 594.087 1271.2 586.98 Q1271.2 579.851 1269.37 576.309 Q1267.57 572.744 1263.93 572.744 M1263.93 569.041 Q1269.74 569.041 1272.8 573.647 Q1275.88 578.23 1275.88 586.98 Q1275.88 595.707 1272.8 600.313 Q1269.74 604.897 1263.93 604.897 Q1258.12 604.897 1255.04 600.313 Q1251.99 595.707 1251.99 586.98 Q1251.99 578.23 1255.04 573.647 Q1258.12 569.041 1263.93 569.041 Z" fill="#000000" fill-rule="nonzero" fill-opacity="1" /><path clip-path="url(#clip800)" d="M1284.09 598.346 L1288.98 598.346 L1288.98 604.226 L1284.09 604.226 L1284.09 598.346 Z" fill="#000000" fill-rule="nonzero" fill-opacity="1" /><path clip-path="url(#clip800)" d="M1297.98 569.666 L1320.2 569.666 L1320.2 571.656 L1307.66 604.226 L1302.77 604.226 L1314.58 573.601 L1297.98 573.601 L1297.98 569.666 Z" fill="#000000" fill-rule="nonzero" fill-opacity="1" /><path clip-path="url(#clip800)" d="M1329.37 569.666 L1347.73 569.666 L1347.73 573.601 L1333.65 573.601 L1333.65 582.073 Q1334.67 581.726 1335.69 581.564 Q1336.71 581.378 1337.73 581.378 Q1343.51 581.378 1346.89 584.55 Q1350.27 587.721 1350.27 593.138 Q1350.27 598.716 1346.8 601.818 Q1343.33 604.897 1337.01 604.897 Q1334.83 604.897 1332.57 604.526 Q1330.32 604.156 1327.91 603.415 L1327.91 598.716 Q1330 599.851 1332.22 600.406 Q1334.44 600.962 1336.92 600.962 Q1340.92 600.962 1343.26 598.855 Q1345.6 596.749 1345.6 593.138 Q1345.6 589.527 1343.26 587.42 Q1340.92 585.314 1336.92 585.314 Q1335.04 585.314 1333.17 585.73 Q1331.32 586.147 1329.37 587.027 L1329.37 569.666 Z" fill="#000000" fill-rule="nonzero" fill-opacity="1" /><path clip-path="url(#clip800)" d="M1253.75 300.456 L1261.39 300.456 L1261.39 274.091 L1253.08 275.757 L1253.08 271.498 L1261.34 269.831 L1266.02 269.831 L1266.02 300.456 L1273.65 300.456 L1273.65 304.391 L1253.75 304.391 L1253.75 300.456 Z" fill="#000000" fill-rule="nonzero" fill-opacity="1" /><path clip-path="url(#clip800)" d="M1283.1 298.512 L1287.98 298.512 L1287.98 304.391 L1283.1 304.391 L1283.1 298.512 Z" fill="#000000" fill-rule="nonzero" fill-opacity="1" /><path clip-path="url(#clip800)" d="M1308.17 272.91 Q1304.56 272.91 1302.73 276.475 Q1300.92 280.017 1300.92 287.146 Q1300.92 294.253 1302.73 297.817 Q1304.56 301.359 1308.17 301.359 Q1311.8 301.359 1313.61 297.817 Q1315.44 294.253 1315.44 287.146 Q1315.44 280.017 1313.61 276.475 Q1311.8 272.91 1308.17 272.91 M1308.17 269.206 Q1313.98 269.206 1317.03 273.813 Q1320.11 278.396 1320.11 287.146 Q1320.11 295.873 1317.03 300.479 Q1313.98 305.063 1308.17 305.063 Q1302.36 305.063 1299.28 300.479 Q1296.22 295.873 1296.22 287.146 Q1296.22 278.396 1299.28 273.813 Q1302.36 269.206 1308.17 269.206 Z" fill="#000000" fill-rule="nonzero" fill-opacity="1" /><path clip-path="url(#clip800)" d="M1338.33 272.91 Q1334.72 272.91 1332.89 276.475 Q1331.08 280.017 1331.08 287.146 Q1331.08 294.253 1332.89 297.817 Q1334.72 301.359 1338.33 301.359 Q1341.96 301.359 1343.77 297.817 Q1345.6 294.253 1345.6 287.146 Q1345.6 280.017 1343.77 276.475 Q1341.96 272.91 1338.33 272.91 M1338.33 269.206 Q1344.14 269.206 1347.2 273.813 Q1350.27 278.396 1350.27 287.146 Q1350.27 295.873 1347.2 300.479 Q1344.14 305.063 1338.33 305.063 Q1332.52 305.063 1329.44 300.479 Q1326.39 295.873 1326.39 287.146 Q1326.39 278.396 1329.44 273.813 Q1332.52 269.206 1338.33 269.206 Z" fill="#000000" fill-rule="nonzero" fill-opacity="1" /><path clip-path="url(#clip803)" d="M1805.08 886.78 L1805.08 1486.45 L1933.95 1486.45 L1933.95 886.78 L1805.08 886.78 L1805.08 886.78  Z" fill="#009af9" fill-rule="evenodd" fill-opacity="1"/>
<polyline clip-path="url(#clip803)" style="stroke:#000000; stroke-linecap:round; stroke-linejoin:round; stroke-width:4; stroke-opacity:1; fill:none" points="1805.08,886.78 1805.08,1486.45 1933.95,1486.45 1933.95,886.78 1805.08,886.78 "/>
<path clip-path="url(#clip803)" d="M1966.16 586.946 L1966.16 1486.45 L2095.03 1486.45 L2095.03 586.946 L1966.16 586.946 L1966.16 586.946  Z" fill="#009af9" fill-rule="evenodd" fill-opacity="1"/>
<polyline clip-path="url(#clip803)" style="stroke:#000000; stroke-linecap:round; stroke-linejoin:round; stroke-width:4; stroke-opacity:1; fill:none" points="1966.16,586.946 1966.16,1486.45 2095.03,1486.45 2095.03,586.946 1966.16,586.946 "/>
<path clip-path="url(#clip803)" d="M2127.24 886.78 L2127.24 1486.45 L2256.11 1486.45 L2256.11 886.78 L2127.24 886.78 L2127.24 886.78  Z" fill="#009af9" fill-rule="evenodd" fill-opacity="1"/>
<polyline clip-path="url(#clip803)" style="stroke:#000000; stroke-linecap:round; stroke-linejoin:round; stroke-width:4; stroke-opacity:1; fill:none" points="2127.24,886.78 2127.24,1486.45 2256.11,1486.45 2256.11,886.78 2127.24,886.78 "/>
<circle clip-path="url(#clip803)" style="fill:#009af9; stroke:none; fill-opacity:0" cx="1869.51" cy="886.78" r="2"/>
<circle clip-path="url(#clip803)" style="fill:#009af9; stroke:none; fill-opacity:0" cx="2030.6" cy="586.946" r="2"/>
<circle clip-path="url(#clip803)" style="fill:#009af9; stroke:none; fill-opacity:0" cx="2191.68" cy="886.78" r="2"/>
<path clip-path="url(#clip800)" d="M1418.49 198.898 L1538.33 198.898 L1538.33 95.2176 L1418.49 95.2176  Z" fill="#ffffff" fill-rule="evenodd" fill-opacity="1"/>
<polyline clip-path="url(#clip800)" style="stroke:#000000; stroke-linecap:round; stroke-linejoin:round; stroke-width:4; stroke-opacity:1; fill:none" points="1418.49,198.898 1538.33,198.898 1538.33,95.2176 1418.49,95.2176 1418.49,198.898 "/>
<path clip-path="url(#clip800)" d="M1429.23 167.794 L1493.66 167.794 L1493.66 126.322 L1429.23 126.322 L1429.23 167.794  Z" fill="#009af9" fill-rule="evenodd" fill-opacity="1"/>
<polyline clip-path="url(#clip800)" style="stroke:#000000; stroke-linecap:round; stroke-linejoin:round; stroke-width:4; stroke-opacity:1; fill:none" points="1429.23,167.794 1493.66,167.794 1493.66,126.322 1429.23,126.322 1429.23,167.794 "/>
<path clip-path="url(#clip800)" d="M1523.17 151.398 Q1523.17 146.699 1521.23 144.037 Q1519.31 141.352 1515.93 141.352 Q1512.55 141.352 1510.6 144.037 Q1508.68 146.699 1508.68 151.398 Q1508.68 156.097 1510.6 158.782 Q1512.55 161.444 1515.93 161.444 Q1519.31 161.444 1521.23 158.782 Q1523.17 156.097 1523.17 151.398 M1508.68 142.347 Q1510.02 140.032 1512.06 138.921 Q1514.12 137.787 1516.97 137.787 Q1521.69 137.787 1524.63 141.537 Q1527.59 145.287 1527.59 151.398 Q1527.59 157.509 1524.63 161.259 Q1521.69 165.009 1516.97 165.009 Q1514.12 165.009 1512.06 163.898 Q1510.02 162.763 1508.68 160.449 L1508.68 164.338 L1504.4 164.338 L1504.4 128.319 L1508.68 128.319 L1508.68 142.347 Z" fill="#000000" fill-rule="nonzero" fill-opacity="1" /></svg>
