<?xml version="1.0" encoding="utf-8"?>
<svg xmlns="http://www.w3.org/2000/svg" xmlns:xlink="http://www.w3.org/1999/xlink" width="600" height="400" viewBox="0 0 2400 1600">
<defs>
  <clipPath id="clip9000">
    <rect x="0" y="0" width="2400" height="1600"/>
  </clipPath>
</defs>
<path clip-path="url(#clip9000)" d="
M0 1600 L2400 1600 L2400 0 L0 0  Z
  " fill="#ffffff" fill-rule="evenodd" fill-opacity="1"/>
<defs>
  <clipPath id="clip9001">
    <rect x="480" y="0" width="1681" height="1600"/>
  </clipPath>
</defs>
<path clip-path="url(#clip9000)" d="
M174.862 1486.45 L1152.76 1486.45 L1152.76 47.2441 L174.862 47.2441  Z
  " fill="#ffffff" fill-rule="evenodd" fill-opacity="1"/>
<defs>
  <clipPath id="clip9002">
    <rect x="174" y="47" width="979" height="1440"/>
  </clipPath>
</defs>
<polyline clip-path="url(#clip9002)" style="stroke:#000000; stroke-width:2; stroke-opacity:0.1; fill:none" points="
  174.862,1486.45 174.862,47.2441 
  "/>
<polyline clip-path="url(#clip9002)" style="stroke:#000000; stroke-width:2; stroke-opacity:0.1; fill:none" points="
  337.844,1486.45 337.844,47.2441 
  "/>
<polyline clip-path="url(#clip9002)" style="stroke:#000000; stroke-width:2; stroke-opacity:0.1; fill:none" points="
  500.827,1486.45 500.827,47.2441 
  "/>
<polyline clip-path="url(#clip9002)" style="stroke:#000000; stroke-width:2; stroke-opacity:0.1; fill:none" points="
  663.809,1486.45 663.809,47.2441 
  "/>
<polyline clip-path="url(#clip9002)" style="stroke:#000000; stroke-width:2; stroke-opacity:0.1; fill:none" points="
  826.791,1486.45 826.791,47.2441 
  "/>
<polyline clip-path="url(#clip9002)" style="stroke:#000000; stroke-width:2; stroke-opacity:0.1; fill:none" points="
  989.774,1486.45 989.774,47.2441 
  "/>
<polyline clip-path="url(#clip9002)" style="stroke:#000000; stroke-width:2; stroke-opacity:0.1; fill:none" points="
  1152.76,1486.45 1152.76,47.2441 
  "/>
<polyline clip-path="url(#clip9002)" style="stroke:#000000; stroke-width:2; stroke-opacity:0.1; fill:none" points="
  174.862,1486.45 1152.76,1486.45 
  "/>
<polyline clip-path="url(#clip9002)" style="stroke:#000000; stroke-width:2; stroke-opacity:0.1; fill:none" points="
  174.862,1186.61 1152.76,1186.61 
  "/>
<polyline clip-path="url(#clip9002)" style="stroke:#000000; stroke-width:2; stroke-opacity:0.1; fill:none" points="
  174.862,886.78 1152.76,886.78 
  "/>
<polyline clip-path="url(#clip9002)" style="stroke:#000000; stroke-width:2; stroke-opacity:0.1; fill:none" points="
  174.862,586.946 1152.76,586.946 
  "/>
<polyline clip-path="url(#clip9002)" style="stroke:#000000; stroke-width:2; stroke-opacity:0.1; fill:none" points="
  174.862,287.111 1152.76,287.111 
  "/>
<polyline clip-path="url(#clip9000)" style="stroke:#000000; stroke-width:4; stroke-opacity:1; fill:none" points="
  174.862,1486.45 1152.76,1486.45 
  "/>
<polyline clip-path="url(#clip9000)" style="stroke:#000000; stroke-width:4; stroke-opacity:1; fill:none" points="
  174.862,1486.45 174.862,47.2441 
  "/>
<polyline clip-path="url(#clip9000)" style="stroke:#000000; stroke-width:4; stroke-opacity:1; fill:none" points="
  174.862,1486.45 174.862,1469.18 
  "/>
<polyline clip-path="url(#clip9000)" style="stroke:#000000; stroke-width:4; stroke-opacity:1; fill:none" points="
  337.844,1486.45 337.844,1469.18 
  "/>
<polyline clip-path="url(#clip9000)" style="stroke:#000000; stroke-width:4; stroke-opacity:1; fill:none" points="
  500.827,1486.45 500.827,1469.18 
  "/>
<polyline clip-path="url(#clip9000)" style="stroke:#000000; stroke-width:4; stroke-opacity:1; fill:none" points="
  663.809,1486.45 663.809,1469.18 
  "/>
<polyline clip-path="url(#clip9000)" style="stroke:#000000; stroke-width:4; stroke-opacity:1; fill:none" points="
  826.791,1486.45 826.791,1469.18 
  "/>
<polyline clip-path="url(#clip9000)" style="stroke:#000000; stroke-width:4; stroke-opacity:1; fill:none" points="
  989.774,1486.45 989.774,1469.18 
  "/>
<polyline clip-path="url(#clip9000)" style="stroke:#000000; stroke-width:4; stroke-opacity:1; fill:none" points="
  1152.76,1486.45 1152.76,1469.18 
  "/>
<polyline clip-path="url(#clip9000)" style="stroke:#000000; stroke-width:4; stroke-opacity:1; fill:none" points="
  174.862,1486.45 186.597,1486.45 
  "/>
<polyline clip-path="url(#clip9000)" style="stroke:#000000; stroke-width:4; stroke-opacity:1; fill:none" points="
  174.862,1186.61 186.597,1186.61 
  "/>
<polyline clip-path="url(#clip9000)" style="stroke:#000000; stroke-width:4; stroke-opacity:1; fill:none" points="
  174.862,886.78 186.597,886.78 
  "/>
<polyline clip-path="url(#clip9000)" style="stroke:#000000; stroke-width:4; stroke-opacity:1; fill:none" points="
  174.862,586.946 186.597,586.946 
  "/>
<polyline clip-path="url(#clip9000)" style="stroke:#000000; stroke-width:4; stroke-opacity:1; fill:none" points="
  174.862,287.111 186.597,287.111 
  "/>
<path clip-path="url(#clip9000)" d="M 0 0 M174.862 1508.44 Q171.251 1508.44 169.422 1512 Q167.617 1515.55 167.617 1522.67 Q167.617 1529.78 169.422 1533.35 Q171.251 1536.89 174.862 1536.89 Q178.496 1536.89 180.302 1533.35 Q182.131 1529.78 182.131 1522.67 Q182.131 1515.55 180.302 1512 Q178.496 1508.44 174.862 1508.44 M174.862 1504.73 Q180.672 1504.73 183.728 1509.34 Q186.806 1513.92 186.806 1522.67 Q186.806 1531.4 183.728 1536.01 Q180.672 1540.59 174.862 1540.59 Q169.052 1540.59 165.973 1536.01 Q162.918 1531.4 162.918 1522.67 Q162.918 1513.92 165.973 1509.34 Q169.052 1504.73 174.862 1504.73 Z" fill="#000000" fill-rule="evenodd" fill-opacity="1" /><path clip-path="url(#clip9000)" d="M 0 0 M328.226 1535.98 L335.865 1535.98 L335.865 1509.62 L327.555 1511.29 L327.555 1507.03 L335.819 1505.36 L340.495 1505.36 L340.495 1535.98 L348.134 1535.98 L348.134 1539.92 L328.226 1539.92 L328.226 1535.98 Z" fill="#000000" fill-rule="evenodd" fill-opacity="1" /><path clip-path="url(#clip9000)" d="M 0 0 M495.479 1535.98 L511.799 1535.98 L511.799 1539.92 L489.854 1539.92 L489.854 1535.98 Q492.517 1533.23 497.1 1528.6 Q501.706 1523.95 502.887 1522.61 Q505.132 1520.08 506.012 1518.35 Q506.915 1516.59 506.915 1514.9 Q506.915 1512.14 504.97 1510.41 Q503.049 1508.67 499.947 1508.67 Q497.748 1508.67 495.294 1509.43 Q492.864 1510.2 490.086 1511.75 L490.086 1507.03 Q492.91 1505.89 495.364 1505.31 Q497.817 1504.73 499.854 1504.73 Q505.225 1504.73 508.419 1507.42 Q511.614 1510.11 511.614 1514.6 Q511.614 1516.73 510.803 1518.65 Q510.016 1520.54 507.91 1523.14 Q507.331 1523.81 504.229 1527.03 Q501.128 1530.22 495.479 1535.98 Z" fill="#000000" fill-rule="evenodd" fill-opacity="1" /><path clip-path="url(#clip9000)" d="M 0 0 M668.057 1521.29 Q671.413 1522 673.288 1524.27 Q675.186 1526.54 675.186 1529.87 Q675.186 1534.99 671.668 1537.79 Q668.149 1540.59 661.668 1540.59 Q659.492 1540.59 657.177 1540.15 Q654.885 1539.73 652.432 1538.88 L652.432 1534.36 Q654.376 1535.5 656.691 1536.08 Q659.006 1536.66 661.529 1536.66 Q665.927 1536.66 668.219 1534.92 Q670.533 1533.18 670.533 1529.87 Q670.533 1526.82 668.381 1525.11 Q666.251 1523.37 662.432 1523.37 L658.404 1523.37 L658.404 1519.53 L662.617 1519.53 Q666.066 1519.53 667.895 1518.16 Q669.723 1516.77 669.723 1514.18 Q669.723 1511.52 667.825 1510.11 Q665.95 1508.67 662.432 1508.67 Q660.51 1508.67 658.311 1509.09 Q656.112 1509.5 653.473 1510.38 L653.473 1506.22 Q656.135 1505.48 658.45 1505.11 Q660.788 1504.73 662.848 1504.73 Q668.172 1504.73 671.274 1507.17 Q674.376 1509.57 674.376 1513.69 Q674.376 1516.56 672.733 1518.55 Q671.089 1520.52 668.057 1521.29 Z" fill="#000000" fill-rule="evenodd" fill-opacity="1" /><path clip-path="url(#clip9000)" d="M 0 0 M829.801 1509.43 L817.995 1527.88 L829.801 1527.88 L829.801 1509.43 M828.574 1505.36 L834.453 1505.36 L834.453 1527.88 L839.384 1527.88 L839.384 1531.77 L834.453 1531.77 L834.453 1539.92 L829.801 1539.92 L829.801 1531.77 L814.199 1531.77 L814.199 1527.26 L828.574 1505.36 Z" fill="#000000" fill-rule="evenodd" fill-opacity="1" /><path clip-path="url(#clip9000)" d="M 0 0 M980.051 1505.36 L998.408 1505.36 L998.408 1509.3 L984.334 1509.3 L984.334 1517.77 Q985.352 1517.42 986.371 1517.26 Q987.389 1517.07 988.408 1517.07 Q994.195 1517.07 997.574 1520.24 Q1000.95 1523.42 1000.95 1528.83 Q1000.95 1534.41 997.482 1537.51 Q994.01 1540.59 987.69 1540.59 Q985.514 1540.59 983.246 1540.22 Q981 1539.85 978.593 1539.11 L978.593 1534.41 Q980.676 1535.54 982.899 1536.1 Q985.121 1536.66 987.598 1536.66 Q991.602 1536.66 993.94 1534.55 Q996.278 1532.44 996.278 1528.83 Q996.278 1525.22 993.94 1523.11 Q991.602 1521.01 987.598 1521.01 Q985.723 1521.01 983.848 1521.42 Q981.996 1521.84 980.051 1522.72 L980.051 1505.36 Z" fill="#000000" fill-rule="evenodd" fill-opacity="1" /><path clip-path="url(#clip9000)" d="M 0 0 M1153.16 1520.78 Q1150.01 1520.78 1148.16 1522.93 Q1146.33 1525.08 1146.33 1528.83 Q1146.33 1532.56 1148.16 1534.73 Q1150.01 1536.89 1153.16 1536.89 Q1156.31 1536.89 1158.14 1534.73 Q1159.99 1532.56 1159.99 1528.83 Q1159.99 1525.08 1158.14 1522.93 Q1156.31 1520.78 1153.16 1520.78 M1162.44 1506.12 L1162.44 1510.38 Q1160.68 1509.55 1158.88 1509.11 Q1157.1 1508.67 1155.34 1508.67 Q1150.71 1508.67 1148.25 1511.8 Q1145.82 1514.92 1145.48 1521.24 Q1146.84 1519.23 1148.9 1518.16 Q1150.96 1517.07 1153.44 1517.07 Q1158.65 1517.07 1161.66 1520.24 Q1164.69 1523.39 1164.69 1528.83 Q1164.69 1534.16 1161.54 1537.37 Q1158.39 1540.59 1153.16 1540.59 Q1147.17 1540.59 1143.99 1536.01 Q1140.82 1531.4 1140.82 1522.67 Q1140.82 1514.48 1144.71 1509.62 Q1148.6 1504.73 1155.15 1504.73 Q1156.91 1504.73 1158.69 1505.08 Q1160.5 1505.43 1162.44 1506.12 Z" fill="#000000" fill-rule="evenodd" fill-opacity="1" /><path clip-path="url(#clip9000)" d="M 0 0 M74.9365 1472.25 Q71.3254 1472.25 69.4967 1475.81 Q67.6912 1479.35 67.6912 1486.48 Q67.6912 1493.59 69.4967 1497.15 Q71.3254 1500.7 74.9365 1500.7 Q78.5707 1500.7 80.3763 1497.15 Q82.205 1493.59 82.205 1486.48 Q82.205 1479.35 80.3763 1475.81 Q78.5707 1472.25 74.9365 1472.25 M74.9365 1468.54 Q80.7467 1468.54 83.8022 1473.15 Q86.8809 1477.73 86.8809 1486.48 Q86.8809 1495.21 83.8022 1499.82 Q80.7467 1504.4 74.9365 1504.4 Q69.1264 1504.4 66.0477 1499.82 Q62.9921 1495.21 62.9921 1486.48 Q62.9921 1477.73 66.0477 1473.15 Q69.1264 1468.54 74.9365 1468.54 Z" fill="#000000" fill-rule="evenodd" fill-opacity="1" /><path clip-path="url(#clip9000)" d="M 0 0 M91.9503 1497.85 L96.8345 1497.85 L96.8345 1503.73 L91.9503 1503.73 L91.9503 1497.85 Z" fill="#000000" fill-rule="evenodd" fill-opacity="1" /><path clip-path="url(#clip9000)" d="M 0 0 M111.904 1472.25 Q108.293 1472.25 106.464 1475.81 Q104.659 1479.35 104.659 1486.48 Q104.659 1493.59 106.464 1497.15 Q108.293 1500.7 111.904 1500.7 Q115.538 1500.7 117.344 1497.15 Q119.172 1493.59 119.172 1486.48 Q119.172 1479.35 117.344 1475.81 Q115.538 1472.25 111.904 1472.25 M111.904 1468.54 Q117.714 1468.54 120.77 1473.15 Q123.848 1477.73 123.848 1486.48 Q123.848 1495.21 120.77 1499.82 Q117.714 1504.4 111.904 1504.4 Q106.094 1504.4 103.015 1499.82 Q99.9595 1495.21 99.9595 1486.48 Q99.9595 1477.73 103.015 1473.15 Q106.094 1468.54 111.904 1468.54 Z" fill="#000000" fill-rule="evenodd" fill-opacity="1" /><path clip-path="url(#clip9000)" d="M 0 0 M138.918 1472.25 Q135.307 1472.25 133.478 1475.81 Q131.672 1479.35 131.672 1486.48 Q131.672 1493.59 133.478 1497.15 Q135.307 1500.7 138.918 1500.7 Q142.552 1500.7 144.357 1497.15 Q146.186 1493.59 146.186 1486.48 Q146.186 1479.35 144.357 1475.81 Q142.552 1472.25 138.918 1472.25 M138.918 1468.54 Q144.728 1468.54 147.783 1473.15 Q150.862 1477.73 150.862 1486.48 Q150.862 1495.21 147.783 1499.82 Q144.728 1504.4 138.918 1504.4 Q133.107 1504.4 130.029 1499.82 Q126.973 1495.21 126.973 1486.48 Q126.973 1477.73 130.029 1473.15 Q133.107 1468.54 138.918 1468.54 Z" fill="#000000" fill-rule="evenodd" fill-opacity="1" /><path clip-path="url(#clip9000)" d="M 0 0 M77.5291 1172.41 Q73.918 1172.41 72.0893 1175.98 Q70.2838 1179.52 70.2838 1186.65 Q70.2838 1193.75 72.0893 1197.32 Q73.918 1200.86 77.5291 1200.86 Q81.1633 1200.86 82.9689 1197.32 Q84.7976 1193.75 84.7976 1186.65 Q84.7976 1179.52 82.9689 1175.98 Q81.1633 1172.41 77.5291 1172.41 M77.5291 1168.71 Q83.3392 1168.71 86.3948 1173.32 Q89.4735 1177.9 89.4735 1186.65 Q89.4735 1195.38 86.3948 1199.98 Q83.3392 1204.57 77.5291 1204.57 Q71.7189 1204.57 68.6402 1199.98 Q65.5847 1195.38 65.5847 1186.65 Q65.5847 1177.9 68.6402 1173.32 Q71.7189 1168.71 77.5291 1168.71 Z" fill="#000000" fill-rule="evenodd" fill-opacity="1" /><path clip-path="url(#clip9000)" d="M 0 0 M94.5429 1198.01 L99.4271 1198.01 L99.4271 1203.89 L94.5429 1203.89 L94.5429 1198.01 Z" fill="#000000" fill-rule="evenodd" fill-opacity="1" /><path clip-path="url(#clip9000)" d="M 0 0 M108.524 1199.96 L124.844 1199.96 L124.844 1203.89 L102.899 1203.89 L102.899 1199.96 Q105.561 1197.2 110.145 1192.57 Q114.751 1187.92 115.932 1186.58 Q118.177 1184.06 119.057 1182.32 Q119.959 1180.56 119.959 1178.87 Q119.959 1176.12 118.015 1174.38 Q116.094 1172.64 112.992 1172.64 Q110.793 1172.64 108.339 1173.41 Q105.909 1174.17 103.131 1175.72 L103.131 1171 Q105.955 1169.87 108.409 1169.29 Q110.862 1168.71 112.899 1168.71 Q118.27 1168.71 121.464 1171.39 Q124.658 1174.08 124.658 1178.57 Q124.658 1180.7 123.848 1182.62 Q123.061 1184.52 120.955 1187.11 Q120.376 1187.78 117.274 1191 Q114.172 1194.19 108.524 1199.96 Z" fill="#000000" fill-rule="evenodd" fill-opacity="1" /><path clip-path="url(#clip9000)" d="M 0 0 M129.959 1169.33 L148.316 1169.33 L148.316 1173.27 L134.242 1173.27 L134.242 1181.74 Q135.26 1181.39 136.279 1181.23 Q137.297 1181.05 138.316 1181.05 Q144.103 1181.05 147.482 1184.22 Q150.862 1187.39 150.862 1192.81 Q150.862 1198.38 147.39 1201.49 Q143.918 1204.57 137.598 1204.57 Q135.422 1204.57 133.154 1204.19 Q130.908 1203.82 128.501 1203.08 L128.501 1198.38 Q130.584 1199.52 132.807 1200.07 Q135.029 1200.63 137.506 1200.63 Q141.51 1200.63 143.848 1198.52 Q146.186 1196.42 146.186 1192.81 Q146.186 1189.19 143.848 1187.09 Q141.51 1184.98 137.506 1184.98 Q135.631 1184.98 133.756 1185.4 Q131.904 1185.82 129.959 1186.69 L129.959 1169.33 Z" fill="#000000" fill-rule="evenodd" fill-opacity="1" /><path clip-path="url(#clip9000)" d="M 0 0 M75.9319 872.578 Q72.3208 872.578 70.4921 876.143 Q68.6865 879.685 68.6865 886.814 Q68.6865 893.921 70.4921 897.486 Q72.3208 901.027 75.9319 901.027 Q79.5661 901.027 81.3717 897.486 Q83.2004 893.921 83.2004 886.814 Q83.2004 879.685 81.3717 876.143 Q79.5661 872.578 75.9319 872.578 M75.9319 868.875 Q81.742 868.875 84.7976 873.481 Q87.8763 878.064 87.8763 886.814 Q87.8763 895.541 84.7976 900.148 Q81.742 904.731 75.9319 904.731 Q70.1217 904.731 67.043 900.148 Q63.9875 895.541 63.9875 886.814 Q63.9875 878.064 67.043 873.481 Q70.1217 868.875 75.9319 868.875 Z" fill="#000000" fill-rule="evenodd" fill-opacity="1" /><path clip-path="url(#clip9000)" d="M 0 0 M92.9457 898.18 L97.8299 898.18 L97.8299 904.06 L92.9457 904.06 L92.9457 898.18 Z" fill="#000000" fill-rule="evenodd" fill-opacity="1" /><path clip-path="url(#clip9000)" d="M 0 0 M102.946 869.5 L121.302 869.5 L121.302 873.435 L107.228 873.435 L107.228 881.907 Q108.247 881.56 109.265 881.398 Q110.284 881.213 111.302 881.213 Q117.089 881.213 120.469 884.384 Q123.848 887.555 123.848 892.972 Q123.848 898.55 120.376 901.652 Q116.904 904.731 110.584 904.731 Q108.409 904.731 106.14 904.361 Q103.895 903.99 101.487 903.249 L101.487 898.55 Q103.571 899.685 105.793 900.24 Q108.015 900.796 110.492 900.796 Q114.496 900.796 116.834 898.689 Q119.172 896.583 119.172 892.972 Q119.172 889.361 116.834 887.254 Q114.496 885.148 110.492 885.148 Q108.617 885.148 106.742 885.564 Q104.89 885.981 102.946 886.861 L102.946 869.5 Z" fill="#000000" fill-rule="evenodd" fill-opacity="1" /><path clip-path="url(#clip9000)" d="M 0 0 M138.918 872.578 Q135.307 872.578 133.478 876.143 Q131.672 879.685 131.672 886.814 Q131.672 893.921 133.478 897.486 Q135.307 901.027 138.918 901.027 Q142.552 901.027 144.357 897.486 Q146.186 893.921 146.186 886.814 Q146.186 879.685 144.357 876.143 Q142.552 872.578 138.918 872.578 M138.918 868.875 Q144.728 868.875 147.783 873.481 Q150.862 878.064 150.862 886.814 Q150.862 895.541 147.783 900.148 Q144.728 904.731 138.918 904.731 Q133.107 904.731 130.029 900.148 Q126.973 895.541 126.973 886.814 Q126.973 878.064 130.029 873.481 Q133.107 868.875 138.918 868.875 Z" fill="#000000" fill-rule="evenodd" fill-opacity="1" /><path clip-path="url(#clip9000)" d="M 0 0 M76.8346 572.744 Q73.2236 572.744 71.3949 576.309 Q69.5893 579.851 69.5893 586.98 Q69.5893 594.087 71.3949 597.651 Q73.2236 601.193 76.8346 601.193 Q80.4689 601.193 82.2744 597.651 Q84.1031 594.087 84.1031 586.98 Q84.1031 579.851 82.2744 576.309 Q80.4689 572.744 76.8346 572.744 M76.8346 569.041 Q82.6448 569.041 85.7003 573.647 Q88.779 578.23 88.779 586.98 Q88.779 595.707 85.7003 600.313 Q82.6448 604.897 76.8346 604.897 Q71.0245 604.897 67.9458 600.313 Q64.8903 595.707 64.8903 586.98 Q64.8903 578.23 67.9458 573.647 Q71.0245 569.041 76.8346 569.041 Z" fill="#000000" fill-rule="evenodd" fill-opacity="1" /><path clip-path="url(#clip9000)" d="M 0 0 M93.8484 598.346 L98.7327 598.346 L98.7327 604.226 L93.8484 604.226 L93.8484 598.346 Z" fill="#000000" fill-rule="evenodd" fill-opacity="1" /><path clip-path="url(#clip9000)" d="M 0 0 M102.622 569.666 L124.844 569.666 L124.844 571.656 L112.297 604.226 L107.413 604.226 L119.219 573.601 L102.622 573.601 L102.622 569.666 Z" fill="#000000" fill-rule="evenodd" fill-opacity="1" /><path clip-path="url(#clip9000)" d="M 0 0 M129.959 569.666 L148.316 569.666 L148.316 573.601 L134.242 573.601 L134.242 582.073 Q135.26 581.726 136.279 581.564 Q137.297 581.378 138.316 581.378 Q144.103 581.378 147.482 584.55 Q150.862 587.721 150.862 593.138 Q150.862 598.716 147.39 601.818 Q143.918 604.897 137.598 604.897 Q135.422 604.897 133.154 604.526 Q130.908 604.156 128.501 603.415 L128.501 598.716 Q130.584 599.851 132.807 600.406 Q135.029 600.962 137.506 600.962 Q141.51 600.962 143.848 598.855 Q146.186 596.749 146.186 593.138 Q146.186 589.527 143.848 587.42 Q141.51 585.314 137.506 585.314 Q135.631 585.314 133.756 585.73 Q131.904 586.147 129.959 587.027 L129.959 569.666 Z" fill="#000000" fill-rule="evenodd" fill-opacity="1" /><path clip-path="url(#clip9000)" d="M 0 0 M66.9736 300.456 L74.6124 300.456 L74.6124 274.091 L66.3023 275.757 L66.3023 271.498 L74.5661 269.831 L79.242 269.831 L79.242 300.456 L86.8809 300.456 L86.8809 304.391 L66.9736 304.391 L66.9736 300.456 Z" fill="#000000" fill-rule="evenodd" fill-opacity="1" /><path clip-path="url(#clip9000)" d="M 0 0 M91.9503 298.512 L96.8345 298.512 L96.8345 304.391 L91.9503 304.391 L91.9503 298.512 Z" fill="#000000" fill-rule="evenodd" fill-opacity="1" /><path clip-path="url(#clip9000)" d="M 0 0 M111.904 272.91 Q108.293 272.91 106.464 276.475 Q104.659 280.017 104.659 287.146 Q104.659 294.253 106.464 297.817 Q108.293 301.359 111.904 301.359 Q115.538 301.359 117.344 297.817 Q119.172 294.253 119.172 287.146 Q119.172 280.017 117.344 276.475 Q115.538 272.91 111.904 272.91 M111.904 269.206 Q117.714 269.206 120.77 273.813 Q123.848 278.396 123.848 287.146 Q123.848 295.873 120.77 300.479 Q117.714 305.063 111.904 305.063 Q106.094 305.063 103.015 300.479 Q99.9595 295.873 99.9595 287.146 Q99.9595 278.396 103.015 273.813 Q106.094 269.206 111.904 269.206 Z" fill="#000000" fill-rule="evenodd" fill-opacity="1" /><path clip-path="url(#clip9000)" d="M 0 0 M138.918 272.91 Q135.307 272.91 133.478 276.475 Q131.672 280.017 131.672 287.146 Q131.672 294.253 133.478 297.817 Q135.307 301.359 138.918 301.359 Q142.552 301.359 144.357 297.817 Q146.186 294.253 146.186 287.146 Q146.186 280.017 144.357 276.475 Q142.552 272.91 138.918 272.91 M138.918 269.206 Q144.728 269.206 147.783 273.813 Q150.862 278.396 150.862 287.146 Q150.862 295.873 147.783 300.479 Q144.728 305.063 138.918 305.063 Q133.107 305.063 130.029 300.479 Q126.973 295.873 126.973 287.146 Q126.973 278.396 130.029 273.813 Q133.107 269.206 138.918 269.206 Z" fill="#000000" fill-rule="evenodd" fill-opacity="1" /><path clip-path="url(#clip9002)" d="
M272.651 886.78 L272.651 1486.45 L403.037 1486.45 L403.037 886.78 L272.651 886.78 L272.651 886.78  Z
  " fill="#009af9" fill-rule="evenodd" fill-opacity="1"/>
<polyline clip-path="url(#clip9002)" style="stroke:#000000; stroke-width:4; stroke-opacity:1; fill:none" points="
  272.651,886.78 272.651,1486.45 403.037,1486.45 403.037,886.78 272.651,886.78 
  "/>
<path clip-path="url(#clip9002)" d="
M435.634 287.111 L435.634 1486.45 L566.02 1486.45 L566.02 287.111 L435.634 287.111 L435.634 287.111  Z
  " fill="#009af9" fill-rule="evenodd" fill-opacity="1"/>
<polyline clip-path="url(#clip9002)" style="stroke:#000000; stroke-width:4; stroke-opacity:1; fill:none" points="
  435.634,287.111 435.634,1486.45 566.02,1486.45 566.02,287.111 435.634,287.111 
  "/>
<path clip-path="url(#clip9002)" d="
M598.616 287.111 L598.616 1486.45 L729.002 1486.45 L729.002 287.111 L598.616 287.111 L598.616 287.111  Z
  " fill="#009af9" fill-rule="evenodd" fill-opacity="1"/>
<polyline clip-path="url(#clip9002)" style="stroke:#000000; stroke-width:4; stroke-opacity:1; fill:none" points="
  598.616,287.111 598.616,1486.45 729.002,1486.45 729.002,287.111 598.616,287.111 
  "/>
<path clip-path="url(#clip9002)" d="
M761.598 886.78 L761.598 1486.45 L891.984 1486.45 L891.984 886.78 L761.598 886.78 L761.598 886.78  Z
  " fill="#009af9" fill-rule="evenodd" fill-opacity="1"/>
<polyline clip-path="url(#clip9002)" style="stroke:#000000; stroke-width:4; stroke-opacity:1; fill:none" points="
  761.598,886.78 761.598,1486.45 891.984,1486.45 891.984,886.78 761.598,886.78 
  "/>
<path clip-path="url(#clip9000)" d="
M246.862 251.724 L508.76 251.724 L508.76 130.764 L246.862 130.764  Z
  " fill="#ffffff" fill-rule="evenodd" fill-opacity="1"/>
<polyline clip-path="url(#clip9000)" style="stroke:#000000; stroke-width:4; stroke-opacity:1; fill:none" points="
  246.862,251.724 508.76,251.724 508.76,130.764 246.862,130.764 246.862,251.724 
  "/>
<path clip-path="url(#clip9000)" d="
M270.862 215.436 L414.862 215.436 L414.862 167.052 L270.862 167.052 L270.862 215.436  Z
  " fill="#009af9" fill-rule="evenodd" fill-opacity="1"/>
<polyline clip-path="url(#clip9000)" style="stroke:#000000; stroke-width:4; stroke-opacity:1; fill:none" points="
  270.862,215.436 414.862,215.436 414.862,167.052 270.862,167.052 270.862,215.436 
  "/>
<path clip-path="url(#clip9000)" d="M 0 0 M452.265 195.492 Q447.103 195.492 445.112 196.672 Q443.121 197.853 443.121 200.7 Q443.121 202.969 444.603 204.311 Q446.107 205.631 448.677 205.631 Q452.218 205.631 454.348 203.131 Q456.501 200.607 456.501 196.441 L456.501 195.492 L452.265 195.492 M460.76 193.733 L460.76 208.524 L456.501 208.524 L456.501 204.589 Q455.042 206.95 452.867 208.084 Q450.691 209.195 447.543 209.195 Q443.561 209.195 441.2 206.973 Q438.862 204.728 438.862 200.978 Q438.862 196.603 441.779 194.381 Q444.718 192.158 450.529 192.158 L456.501 192.158 L456.501 191.742 Q456.501 188.802 454.556 187.205 Q452.635 185.584 449.14 185.584 Q446.918 185.584 444.811 186.117 Q442.705 186.649 440.76 187.714 L440.76 183.779 Q443.098 182.876 445.297 182.436 Q447.496 181.973 449.58 181.973 Q455.205 181.973 457.982 184.89 Q460.76 187.807 460.76 193.733 Z" fill="#000000" fill-rule="evenodd" fill-opacity="1" /><path clip-path="url(#clip9000)" d="
M1374.86 1486.45 L2352.76 1486.45 L2352.76 47.2441 L1374.86 47.2441  Z
  " fill="#ffffff" fill-rule="evenodd" fill-opacity="1"/>
<defs>
  <clipPath id="clip9003">
    <rect x="1374" y="47" width="979" height="1440"/>
  </clipPath>
</defs>
<polyline clip-path="url(#clip9003)" style="stroke:#000000; stroke-width:2; stroke-opacity:0.1; fill:none" points="
  1374.86,1486.45 1374.86,47.2441 
  "/>
<polyline clip-path="url(#clip9003)" style="stroke:#000000; stroke-width:2; stroke-opacity:0.1; fill:none" points="
  1537.84,1486.45 1537.84,47.2441 
  "/>
<polyline clip-path="url(#clip9003)" style="stroke:#000000; stroke-width:2; stroke-opacity:0.1; fill:none" points="
  1700.83,1486.45 1700.83,47.2441 
  "/>
<polyline clip-path="url(#clip9003)" style="stroke:#000000; stroke-width:2; stroke-opacity:0.1; fill:none" points="
  1863.81,1486.45 1863.81,47.2441 
  "/>
<polyline clip-path="url(#clip9003)" style="stroke:#000000; stroke-width:2; stroke-opacity:0.1; fill:none" points="
  2026.79,1486.45 2026.79,47.2441 
  "/>
<polyline clip-path="url(#clip9003)" style="stroke:#000000; stroke-width:2; stroke-opacity:0.1; fill:none" points="
  2189.77,1486.45 2189.77,47.2441 
  "/>
<polyline clip-path="url(#clip9003)" style="stroke:#000000; stroke-width:2; stroke-opacity:0.1; fill:none" points="
  2352.76,1486.45 2352.76,47.2441 
  "/>
<polyline clip-path="url(#clip9003)" style="stroke:#000000; stroke-width:2; stroke-opacity:0.1; fill:none" points="
  1374.86,1486.45 2352.76,1486.45 
  "/>
<polyline clip-path="url(#clip9003)" style="stroke:#000000; stroke-width:2; stroke-opacity:0.1; fill:none" points="
  1374.86,1186.61 2352.76,1186.61 
  "/>
<polyline clip-path="url(#clip9003)" style="stroke:#000000; stroke-width:2; stroke-opacity:0.1; fill:none" points="
  1374.86,886.78 2352.76,886.78 
  "/>
<polyline clip-path="url(#clip9003)" style="stroke:#000000; stroke-width:2; stroke-opacity:0.1; fill:none" points="
  1374.86,586.946 2352.76,586.946 
  "/>
<polyline clip-path="url(#clip9003)" style="stroke:#000000; stroke-width:2; stroke-opacity:0.1; fill:none" points="
  1374.86,287.111 2352.76,287.111 
  "/>
<polyline clip-path="url(#clip9000)" style="stroke:#000000; stroke-width:4; stroke-opacity:1; fill:none" points="
  1374.86,1486.45 2352.76,1486.45 
  "/>
<polyline clip-path="url(#clip9000)" style="stroke:#000000; stroke-width:4; stroke-opacity:1; fill:none" points="
  1374.86,1486.45 1374.86,47.2441 
  "/>
<polyline clip-path="url(#clip9000)" style="stroke:#000000; stroke-width:4; stroke-opacity:1; fill:none" points="
  1374.86,1486.45 1374.86,1469.18 
  "/>
<polyline clip-path="url(#clip9000)" style="stroke:#000000; stroke-width:4; stroke-opacity:1; fill:none" points="
  1537.84,1486.45 1537.84,1469.18 
  "/>
<polyline clip-path="url(#clip9000)" style="stroke:#000000; stroke-width:4; stroke-opacity:1; fill:none" points="
  1700.83,1486.45 1700.83,1469.18 
  "/>
<polyline clip-path="url(#clip9000)" style="stroke:#000000; stroke-width:4; stroke-opacity:1; fill:none" points="
  1863.81,1486.45 1863.81,1469.18 
  "/>
<polyline clip-path="url(#clip9000)" style="stroke:#000000; stroke-width:4; stroke-opacity:1; fill:none" points="
  2026.79,1486.45 2026.79,1469.18 
  "/>
<polyline clip-path="url(#clip9000)" style="stroke:#000000; stroke-width:4; stroke-opacity:1; fill:none" points="
  2189.77,1486.45 2189.77,1469.18 
  "/>
<polyline clip-path="url(#clip9000)" style="stroke:#000000; stroke-width:4; stroke-opacity:1; fill:none" points="
  2352.76,1486.45 2352.76,1469.18 
  "/>
<polyline clip-path="url(#clip9000)" style="stroke:#000000; stroke-width:4; stroke-opacity:1; fill:none" points="
  1374.86,1486.45 1386.6,1486.45 
  "/>
<polyline clip-path="url(#clip9000)" style="stroke:#000000; stroke-width:4; stroke-opacity:1; fill:none" points="
  1374.86,1186.61 1386.6,1186.61 
  "/>
<polyline clip-path="url(#clip9000)" style="stroke:#000000; stroke-width:4; stroke-opacity:1; fill:none" points="
  1374.86,886.78 1386.6,886.78 
  "/>
<polyline clip-path="url(#clip9000)" style="stroke:#000000; stroke-width:4; stroke-opacity:1; fill:none" points="
  1374.86,586.946 1386.6,586.946 
  "/>
<polyline clip-path="url(#clip9000)" style="stroke:#000000; stroke-width:4; stroke-opacity:1; fill:none" points="
  1374.86,287.111 1386.6,287.111 
  "/>
<path clip-path="url(#clip9000)" d="M 0 0 M1374.86 1508.44 Q1371.25 1508.44 1369.42 1512 Q1367.62 1515.55 1367.62 1522.67 Q1367.62 1529.78 1369.42 1533.35 Q1371.25 1536.89 1374.86 1536.89 Q1378.5 1536.89 1380.3 1533.35 Q1382.13 1529.78 1382.13 1522.67 Q1382.13 1515.55 1380.3 1512 Q1378.5 1508.44 1374.86 1508.44 M1374.86 1504.73 Q1380.67 1504.73 1383.73 1509.34 Q1386.81 1513.92 1386.81 1522.67 Q1386.81 1531.4 1383.73 1536.01 Q1380.67 1540.59 1374.86 1540.59 Q1369.05 1540.59 1365.97 1536.01 Q1362.92 1531.4 1362.92 1522.67 Q1362.92 1513.92 1365.97 1509.34 Q1369.05 1504.73 1374.86 1504.73 Z" fill="#000000" fill-rule="evenodd" fill-opacity="1" /><path clip-path="url(#clip9000)" d="M 0 0 M1528.23 1535.98 L1535.87 1535.98 L1535.87 1509.62 L1527.56 1511.29 L1527.56 1507.03 L1535.82 1505.36 L1540.49 1505.36 L1540.49 1535.98 L1548.13 1535.98 L1548.13 1539.92 L1528.23 1539.92 L1528.23 1535.98 Z" fill="#000000" fill-rule="evenodd" fill-opacity="1" /><path clip-path="url(#clip9000)" d="M 0 0 M1695.48 1535.98 L1711.8 1535.98 L1711.8 1539.92 L1689.85 1539.92 L1689.85 1535.98 Q1692.52 1533.23 1697.1 1528.6 Q1701.71 1523.95 1702.89 1522.61 Q1705.13 1520.08 1706.01 1518.35 Q1706.91 1516.59 1706.91 1514.9 Q1706.91 1512.14 1704.97 1510.41 Q1703.05 1508.67 1699.95 1508.67 Q1697.75 1508.67 1695.29 1509.43 Q1692.86 1510.2 1690.09 1511.75 L1690.09 1507.03 Q1692.91 1505.89 1695.36 1505.31 Q1697.82 1504.73 1699.85 1504.73 Q1705.22 1504.73 1708.42 1507.42 Q1711.61 1510.11 1711.61 1514.6 Q1711.61 1516.73 1710.8 1518.65 Q1710.02 1520.54 1707.91 1523.14 Q1707.33 1523.81 1704.23 1527.03 Q1701.13 1530.22 1695.48 1535.98 Z" fill="#000000" fill-rule="evenodd" fill-opacity="1" /><path clip-path="url(#clip9000)" d="M 0 0 M1868.06 1521.29 Q1871.41 1522 1873.29 1524.27 Q1875.19 1526.54 1875.19 1529.87 Q1875.19 1534.99 1871.67 1537.79 Q1868.15 1540.59 1861.67 1540.59 Q1859.49 1540.59 1857.18 1540.15 Q1854.89 1539.73 1852.43 1538.88 L1852.43 1534.36 Q1854.38 1535.5 1856.69 1536.08 Q1859.01 1536.66 1861.53 1536.66 Q1865.93 1536.66 1868.22 1534.92 Q1870.53 1533.18 1870.53 1529.87 Q1870.53 1526.82 1868.38 1525.11 Q1866.25 1523.37 1862.43 1523.37 L1858.4 1523.37 L1858.4 1519.53 L1862.62 1519.53 Q1866.07 1519.53 1867.89 1518.16 Q1869.72 1516.77 1869.72 1514.18 Q1869.72 1511.52 1867.83 1510.11 Q1865.95 1508.67 1862.43 1508.67 Q1860.51 1508.67 1858.31 1509.09 Q1856.11 1509.5 1853.47 1510.38 L1853.47 1506.22 Q1856.14 1505.48 1858.45 1505.11 Q1860.79 1504.73 1862.85 1504.73 Q1868.17 1504.73 1871.27 1507.17 Q1874.38 1509.57 1874.38 1513.69 Q1874.38 1516.56 1872.73 1518.55 Q1871.09 1520.52 1868.06 1521.29 Z" fill="#000000" fill-rule="evenodd" fill-opacity="1" /><path clip-path="url(#clip9000)" d="M 0 0 M2029.8 1509.43 L2018 1527.88 L2029.8 1527.88 L2029.8 1509.43 M2028.57 1505.36 L2034.45 1505.36 L2034.45 1527.88 L2039.38 1527.88 L2039.38 1531.77 L2034.45 1531.77 L2034.45 1539.92 L2029.8 1539.92 L2029.8 1531.77 L2014.2 1531.77 L2014.2 1527.26 L2028.57 1505.36 Z" fill="#000000" fill-rule="evenodd" fill-opacity="1" /><path clip-path="url(#clip9000)" d="M 0 0 M2180.05 1505.36 L2198.41 1505.36 L2198.41 1509.3 L2184.33 1509.3 L2184.33 1517.77 Q2185.35 1517.42 2186.37 1517.26 Q2187.39 1517.07 2188.41 1517.07 Q2194.19 1517.07 2197.57 1520.24 Q2200.95 1523.42 2200.95 1528.83 Q2200.95 1534.41 2197.48 1537.51 Q2194.01 1540.59 2187.69 1540.59 Q2185.51 1540.59 2183.25 1540.22 Q2181 1539.85 2178.59 1539.11 L2178.59 1534.41 Q2180.68 1535.54 2182.9 1536.1 Q2185.12 1536.66 2187.6 1536.66 Q2191.6 1536.66 2193.94 1534.55 Q2196.28 1532.44 2196.28 1528.83 Q2196.28 1525.22 2193.94 1523.11 Q2191.6 1521.01 2187.6 1521.01 Q2185.72 1521.01 2183.85 1521.42 Q2182 1521.84 2180.05 1522.72 L2180.05 1505.36 Z" fill="#000000" fill-rule="evenodd" fill-opacity="1" /><path clip-path="url(#clip9000)" d="M 0 0 M2353.16 1520.78 Q2350.01 1520.78 2348.16 1522.93 Q2346.33 1525.08 2346.33 1528.83 Q2346.33 1532.56 2348.16 1534.73 Q2350.01 1536.89 2353.16 1536.89 Q2356.31 1536.89 2358.14 1534.73 Q2359.99 1532.56 2359.99 1528.83 Q2359.99 1525.08 2358.14 1522.93 Q2356.31 1520.78 2353.16 1520.78 M2362.44 1506.12 L2362.44 1510.38 Q2360.68 1509.55 2358.88 1509.11 Q2357.1 1508.67 2355.34 1508.67 Q2350.71 1508.67 2348.25 1511.8 Q2345.82 1514.92 2345.48 1521.24 Q2346.84 1519.23 2348.9 1518.16 Q2350.96 1517.07 2353.44 1517.07 Q2358.65 1517.07 2361.66 1520.24 Q2364.69 1523.39 2364.69 1528.83 Q2364.69 1534.16 2361.54 1537.37 Q2358.39 1540.59 2353.16 1540.59 Q2347.17 1540.59 2343.99 1536.01 Q2340.82 1531.4 2340.82 1522.67 Q2340.82 1514.48 2344.71 1509.62 Q2348.6 1504.73 2355.15 1504.73 Q2356.91 1504.73 2358.69 1505.08 Q2360.5 1505.43 2362.44 1506.12 Z" fill="#000000" fill-rule="evenodd" fill-opacity="1" /><path clip-path="url(#clip9000)" d="M 0 0 M1274.94 1472.25 Q1271.33 1472.25 1269.5 1475.81 Q1267.69 1479.35 1267.69 1486.48 Q1267.69 1493.59 1269.5 1497.15 Q1271.33 1500.7 1274.94 1500.7 Q1278.57 1500.7 1280.38 1497.15 Q1282.2 1493.59 1282.2 1486.48 Q1282.2 1479.35 1280.38 1475.81 Q1278.57 1472.25 1274.94 1472.25 M1274.94 1468.54 Q1280.75 1468.54 1283.8 1473.15 Q1286.88 1477.73 1286.88 1486.48 Q1286.88 1495.21 1283.8 1499.82 Q1280.75 1504.4 1274.94 1504.4 Q1269.13 1504.4 1266.05 1499.82 Q1262.99 1495.21 1262.99 1486.48 Q1262.99 1477.73 1266.05 1473.15 Q1269.13 1468.54 1274.94 1468.54 Z" fill="#000000" fill-rule="evenodd" fill-opacity="1" /><path clip-path="url(#clip9000)" d="M 0 0 M1291.95 1497.85 L1296.83 1497.85 L1296.83 1503.73 L1291.95 1503.73 L1291.95 1497.85 Z" fill="#000000" fill-rule="evenodd" fill-opacity="1" /><path clip-path="url(#clip9000)" d="M 0 0 M1311.9 1472.25 Q1308.29 1472.25 1306.46 1475.81 Q1304.66 1479.35 1304.66 1486.48 Q1304.66 1493.59 1306.46 1497.15 Q1308.29 1500.7 1311.9 1500.7 Q1315.54 1500.7 1317.34 1497.15 Q1319.17 1493.59 1319.17 1486.48 Q1319.17 1479.35 1317.34 1475.81 Q1315.54 1472.25 1311.9 1472.25 M1311.9 1468.54 Q1317.71 1468.54 1320.77 1473.15 Q1323.85 1477.73 1323.85 1486.48 Q1323.85 1495.21 1320.77 1499.82 Q1317.71 1504.4 1311.9 1504.4 Q1306.09 1504.4 1303.02 1499.82 Q1299.96 1495.21 1299.96 1486.48 Q1299.96 1477.73 1303.02 1473.15 Q1306.09 1468.54 1311.9 1468.54 Z" fill="#000000" fill-rule="evenodd" fill-opacity="1" /><path clip-path="url(#clip9000)" d="M 0 0 M1338.92 1472.25 Q1335.31 1472.25 1333.48 1475.81 Q1331.67 1479.35 1331.67 1486.48 Q1331.67 1493.59 1333.48 1497.15 Q1335.31 1500.7 1338.92 1500.7 Q1342.55 1500.7 1344.36 1497.15 Q1346.19 1493.59 1346.19 1486.48 Q1346.19 1479.35 1344.36 1475.81 Q1342.55 1472.25 1338.92 1472.25 M1338.92 1468.54 Q1344.73 1468.54 1347.78 1473.15 Q1350.86 1477.73 1350.86 1486.48 Q1350.86 1495.21 1347.78 1499.82 Q1344.73 1504.4 1338.92 1504.4 Q1333.11 1504.4 1330.03 1499.82 Q1326.97 1495.21 1326.97 1486.48 Q1326.97 1477.73 1330.03 1473.15 Q1333.11 1468.54 1338.92 1468.54 Z" fill="#000000" fill-rule="evenodd" fill-opacity="1" /><path clip-path="url(#clip9000)" d="M 0 0 M1277.53 1172.41 Q1273.92 1172.41 1272.09 1175.98 Q1270.28 1179.52 1270.28 1186.65 Q1270.28 1193.75 1272.09 1197.32 Q1273.92 1200.86 1277.53 1200.86 Q1281.16 1200.86 1282.97 1197.32 Q1284.8 1193.75 1284.8 1186.65 Q1284.8 1179.52 1282.97 1175.98 Q1281.16 1172.41 1277.53 1172.41 M1277.53 1168.71 Q1283.34 1168.71 1286.39 1173.32 Q1289.47 1177.9 1289.47 1186.65 Q1289.47 1195.38 1286.39 1199.98 Q1283.34 1204.57 1277.53 1204.57 Q1271.72 1204.57 1268.64 1199.98 Q1265.58 1195.38 1265.58 1186.65 Q1265.58 1177.9 1268.64 1173.32 Q1271.72 1168.71 1277.53 1168.71 Z" fill="#000000" fill-rule="evenodd" fill-opacity="1" /><path clip-path="url(#clip9000)" d="M 0 0 M1294.54 1198.01 L1299.43 1198.01 L1299.43 1203.89 L1294.54 1203.89 L1294.54 1198.01 Z" fill="#000000" fill-rule="evenodd" fill-opacity="1" /><path clip-path="url(#clip9000)" d="M 0 0 M1308.52 1199.96 L1324.84 1199.96 L1324.84 1203.89 L1302.9 1203.89 L1302.9 1199.96 Q1305.56 1197.2 1310.14 1192.57 Q1314.75 1187.92 1315.93 1186.58 Q1318.18 1184.06 1319.06 1182.32 Q1319.96 1180.56 1319.96 1178.87 Q1319.96 1176.12 1318.01 1174.38 Q1316.09 1172.64 1312.99 1172.64 Q1310.79 1172.64 1308.34 1173.41 Q1305.91 1174.17 1303.13 1175.72 L1303.13 1171 Q1305.95 1169.87 1308.41 1169.29 Q1310.86 1168.71 1312.9 1168.71 Q1318.27 1168.71 1321.46 1171.39 Q1324.66 1174.08 1324.66 1178.57 Q1324.66 1180.7 1323.85 1182.62 Q1323.06 1184.52 1320.95 1187.11 Q1320.38 1187.78 1317.27 1191 Q1314.17 1194.19 1308.52 1199.96 Z" fill="#000000" fill-rule="evenodd" fill-opacity="1" /><path clip-path="url(#clip9000)" d="M 0 0 M1329.96 1169.33 L1348.32 1169.33 L1348.32 1173.27 L1334.24 1173.27 L1334.24 1181.74 Q1335.26 1181.39 1336.28 1181.23 Q1337.3 1181.05 1338.32 1181.05 Q1344.1 1181.05 1347.48 1184.22 Q1350.86 1187.39 1350.86 1192.81 Q1350.86 1198.38 1347.39 1201.49 Q1343.92 1204.57 1337.6 1204.57 Q1335.42 1204.57 1333.15 1204.19 Q1330.91 1203.82 1328.5 1203.08 L1328.5 1198.38 Q1330.58 1199.52 1332.81 1200.07 Q1335.03 1200.63 1337.51 1200.63 Q1341.51 1200.63 1343.85 1198.52 Q1346.19 1196.42 1346.19 1192.81 Q1346.19 1189.19 1343.85 1187.09 Q1341.51 1184.98 1337.51 1184.98 Q1335.63 1184.98 1333.76 1185.4 Q1331.9 1185.82 1329.96 1186.69 L1329.96 1169.33 Z" fill="#000000" fill-rule="evenodd" fill-opacity="1" /><path clip-path="url(#clip9000)" d="M 0 0 M1275.93 872.578 Q1272.32 872.578 1270.49 876.143 Q1268.69 879.685 1268.69 886.814 Q1268.69 893.921 1270.49 897.486 Q1272.32 901.027 1275.93 901.027 Q1279.57 901.027 1281.37 897.486 Q1283.2 893.921 1283.2 886.814 Q1283.2 879.685 1281.37 876.143 Q1279.57 872.578 1275.93 872.578 M1275.93 868.875 Q1281.74 868.875 1284.8 873.481 Q1287.88 878.064 1287.88 886.814 Q1287.88 895.541 1284.8 900.148 Q1281.74 904.731 1275.93 904.731 Q1270.12 904.731 1267.04 900.148 Q1263.99 895.541 1263.99 886.814 Q1263.99 878.064 1267.04 873.481 Q1270.12 868.875 1275.93 868.875 Z" fill="#000000" fill-rule="evenodd" fill-opacity="1" /><path clip-path="url(#clip9000)" d="M 0 0 M1292.95 898.18 L1297.83 898.18 L1297.83 904.06 L1292.95 904.06 L1292.95 898.18 Z" fill="#000000" fill-rule="evenodd" fill-opacity="1" /><path clip-path="url(#clip9000)" d="M 0 0 M1302.95 869.5 L1321.3 869.5 L1321.3 873.435 L1307.23 873.435 L1307.23 881.907 Q1308.25 881.56 1309.27 881.398 Q1310.28 881.213 1311.3 881.213 Q1317.09 881.213 1320.47 884.384 Q1323.85 887.555 1323.85 892.972 Q1323.85 898.55 1320.38 901.652 Q1316.9 904.731 1310.58 904.731 Q1308.41 904.731 1306.14 904.361 Q1303.89 903.99 1301.49 903.249 L1301.49 898.55 Q1303.57 899.685 1305.79 900.24 Q1308.02 900.796 1310.49 900.796 Q1314.5 900.796 1316.83 898.689 Q1319.17 896.583 1319.17 892.972 Q1319.17 889.361 1316.83 887.254 Q1314.5 885.148 1310.49 885.148 Q1308.62 885.148 1306.74 885.564 Q1304.89 885.981 1302.95 886.861 L1302.95 869.5 Z" fill="#000000" fill-rule="evenodd" fill-opacity="1" /><path clip-path="url(#clip9000)" d="M 0 0 M1338.92 872.578 Q1335.31 872.578 1333.48 876.143 Q1331.67 879.685 1331.67 886.814 Q1331.67 893.921 1333.48 897.486 Q1335.31 901.027 1338.92 901.027 Q1342.55 901.027 1344.36 897.486 Q1346.19 893.921 1346.19 886.814 Q1346.19 879.685 1344.36 876.143 Q1342.55 872.578 1338.92 872.578 M1338.92 868.875 Q1344.73 868.875 1347.78 873.481 Q1350.86 878.064 1350.86 886.814 Q1350.86 895.541 1347.78 900.148 Q1344.73 904.731 1338.92 904.731 Q1333.11 904.731 1330.03 900.148 Q1326.97 895.541 1326.97 886.814 Q1326.97 878.064 1330.03 873.481 Q1333.11 868.875 1338.92 868.875 Z" fill="#000000" fill-rule="evenodd" fill-opacity="1" /><path clip-path="url(#clip9000)" d="M 0 0 M1276.83 572.744 Q1273.22 572.744 1271.39 576.309 Q1269.59 579.851 1269.59 586.98 Q1269.59 594.087 1271.39 597.651 Q1273.22 601.193 1276.83 601.193 Q1280.47 601.193 1282.27 597.651 Q1284.1 594.087 1284.1 586.98 Q1284.1 579.851 1282.27 576.309 Q1280.47 572.744 1276.83 572.744 M1276.83 569.041 Q1282.64 569.041 1285.7 573.647 Q1288.78 578.23 1288.78 586.98 Q1288.78 595.707 1285.7 600.313 Q1282.64 604.897 1276.83 604.897 Q1271.02 604.897 1267.95 600.313 Q1264.89 595.707 1264.89 586.98 Q1264.89 578.23 1267.95 573.647 Q1271.02 569.041 1276.83 569.041 Z" fill="#000000" fill-rule="evenodd" fill-opacity="1" /><path clip-path="url(#clip9000)" d="M 0 0 M1293.85 598.346 L1298.73 598.346 L1298.73 604.226 L1293.85 604.226 L1293.85 598.346 Z" fill="#000000" fill-rule="evenodd" fill-opacity="1" /><path clip-path="url(#clip9000)" d="M 0 0 M1302.62 569.666 L1324.84 569.666 L1324.84 571.656 L1312.3 604.226 L1307.41 604.226 L1319.22 573.601 L1302.62 573.601 L1302.62 569.666 Z" fill="#000000" fill-rule="evenodd" fill-opacity="1" /><path clip-path="url(#clip9000)" d="M 0 0 M1329.96 569.666 L1348.32 569.666 L1348.32 573.601 L1334.24 573.601 L1334.24 582.073 Q1335.26 581.726 1336.28 581.564 Q1337.3 581.378 1338.32 581.378 Q1344.1 581.378 1347.48 584.55 Q1350.86 587.721 1350.86 593.138 Q1350.86 598.716 1347.39 601.818 Q1343.92 604.897 1337.6 604.897 Q1335.42 604.897 1333.15 604.526 Q1330.91 604.156 1328.5 603.415 L1328.5 598.716 Q1330.58 599.851 1332.81 600.406 Q1335.03 600.962 1337.51 600.962 Q1341.51 600.962 1343.85 598.855 Q1346.19 596.749 1346.19 593.138 Q1346.19 589.527 1343.85 587.42 Q1341.51 585.314 1337.51 585.314 Q1335.63 585.314 1333.76 585.73 Q1331.9 586.147 1329.96 587.027 L1329.96 569.666 Z" fill="#000000" fill-rule="evenodd" fill-opacity="1" /><path clip-path="url(#clip9000)" d="M 0 0 M1266.97 300.456 L1274.61 300.456 L1274.61 274.091 L1266.3 275.757 L1266.3 271.498 L1274.57 269.831 L1279.24 269.831 L1279.24 300.456 L1286.88 300.456 L1286.88 304.391 L1266.97 304.391 L1266.97 300.456 Z" fill="#000000" fill-rule="evenodd" fill-opacity="1" /><path clip-path="url(#clip9000)" d="M 0 0 M1291.95 298.512 L1296.83 298.512 L1296.83 304.391 L1291.95 304.391 L1291.95 298.512 Z" fill="#000000" fill-rule="evenodd" fill-opacity="1" /><path clip-path="url(#clip9000)" d="M 0 0 M1311.9 272.91 Q1308.29 272.91 1306.46 276.475 Q1304.66 280.017 1304.66 287.146 Q1304.66 294.253 1306.46 297.817 Q1308.29 301.359 1311.9 301.359 Q1315.54 301.359 1317.34 297.817 Q1319.17 294.253 1319.17 287.146 Q1319.17 280.017 1317.34 276.475 Q1315.54 272.91 1311.9 272.91 M1311.9 269.206 Q1317.71 269.206 1320.77 273.813 Q1323.85 278.396 1323.85 287.146 Q1323.85 295.873 1320.77 300.479 Q1317.71 305.063 1311.9 305.063 Q1306.09 305.063 1303.02 300.479 Q1299.96 295.873 1299.96 287.146 Q1299.96 278.396 1303.02 273.813 Q1306.09 269.206 1311.9 269.206 Z" fill="#000000" fill-rule="evenodd" fill-opacity="1" /><path clip-path="url(#clip9000)" d="M 0 0 M1338.92 272.91 Q1335.31 272.91 1333.48 276.475 Q1331.67 280.017 1331.67 287.146 Q1331.67 294.253 1333.48 297.817 Q1335.31 301.359 1338.92 301.359 Q1342.55 301.359 1344.36 297.817 Q1346.19 294.253 1346.19 287.146 Q1346.19 280.017 1344.36 276.475 Q1342.55 272.91 1338.92 272.91 M1338.92 269.206 Q1344.73 269.206 1347.78 273.813 Q1350.86 278.396 1350.86 287.146 Q1350.86 295.873 1347.78 300.479 Q1344.73 305.063 1338.92 305.063 Q1333.11 305.063 1330.03 300.479 Q1326.97 295.873 1326.97 287.146 Q1326.97 278.396 1330.03 273.813 Q1333.11 269.206 1338.92 269.206 Z" fill="#000000" fill-rule="evenodd" fill-opacity="1" /><path clip-path="url(#clip9003)" d="
M1798.62 886.78 L1798.62 1486.45 L1929 1486.45 L1929 886.78 L1798.62 886.78 L1798.62 886.78  Z
  " fill="#009af9" fill-rule="evenodd" fill-opacity="1"/>
<polyline clip-path="url(#clip9003)" style="stroke:#000000; stroke-width:4; stroke-opacity:1; fill:none" points="
  1798.62,886.78 1798.62,1486.45 1929,1486.45 1929,886.78 1798.62,886.78 
  "/>
<path clip-path="url(#clip9003)" d="
M1961.6 586.946 L1961.6 1486.45 L2091.98 1486.45 L2091.98 586.946 L1961.6 586.946 L1961.6 586.946  Z
  " fill="#009af9" fill-rule="evenodd" fill-opacity="1"/>
<polyline clip-path="url(#clip9003)" style="stroke:#000000; stroke-width:4; stroke-opacity:1; fill:none" points="
  1961.6,586.946 1961.6,1486.45 2091.98,1486.45 2091.98,586.946 1961.6,586.946 
  "/>
<path clip-path="url(#clip9003)" d="
M2124.58 886.78 L2124.58 1486.45 L2254.97 1486.45 L2254.97 886.78 L2124.58 886.78 L2124.58 886.78  Z
  " fill="#009af9" fill-rule="evenodd" fill-opacity="1"/>
<polyline clip-path="url(#clip9003)" style="stroke:#000000; stroke-width:4; stroke-opacity:1; fill:none" points="
  2124.58,886.78 2124.58,1486.45 2254.97,1486.45 2254.97,886.78 2124.58,886.78 
  "/>
<path clip-path="url(#clip9000)" d="
M1446.86 251.724 L1710.06 251.724 L1710.06 130.764 L1446.86 130.764  Z
  " fill="#ffffff" fill-rule="evenodd" fill-opacity="1"/>
<polyline clip-path="url(#clip9000)" style="stroke:#000000; stroke-width:4; stroke-opacity:1; fill:none" points="
  1446.86,251.724 1710.06,251.724 1710.06,130.764 1446.86,130.764 1446.86,251.724 
  "/>
<path clip-path="url(#clip9000)" d="
M1470.86 215.436 L1614.86 215.436 L1614.86 167.052 L1470.86 167.052 L1470.86 215.436  Z
  " fill="#009af9" fill-rule="evenodd" fill-opacity="1"/>
<polyline clip-path="url(#clip9000)" style="stroke:#000000; stroke-width:4; stroke-opacity:1; fill:none" points="
  1470.86,215.436 1614.86,215.436 1614.86,167.052 1470.86,167.052 1470.86,215.436 
  "/>
<path clip-path="url(#clip9000)" d="M 0 0 M1657.64 195.584 Q1657.64 190.885 1655.69 188.223 Q1653.77 185.538 1650.39 185.538 Q1647.01 185.538 1645.07 188.223 Q1643.14 190.885 1643.14 195.584 Q1643.14 200.283 1645.07 202.969 Q1647.01 205.631 1650.39 205.631 Q1653.77 205.631 1655.69 202.969 Q1657.64 200.283 1657.64 195.584 M1643.14 186.533 Q1644.49 184.219 1646.52 183.108 Q1648.58 181.973 1651.43 181.973 Q1656.15 181.973 1659.09 185.723 Q1662.06 189.473 1662.06 195.584 Q1662.06 201.695 1659.09 205.445 Q1656.15 209.195 1651.43 209.195 Q1648.58 209.195 1646.52 208.084 Q1644.49 206.95 1643.14 204.635 L1643.14 208.524 L1638.86 208.524 L1638.86 172.506 L1643.14 172.506 L1643.14 186.533 Z" fill="#000000" fill-rule="evenodd" fill-opacity="1" /></svg>
